<svg version="1.1" viewBox="0.0 0.0 924.0 572.0" fill="none" stroke="none" stroke-linecap="square" stroke-miterlimit="10" width="924" height="572" xmlns:xlink="http://www.w3.org/1999/xlink" xmlns="http://www.w3.org/2000/svg"><path fill="#ffffff" d="M0 0L924.0 0L924.0 572.0L0 572.0L0 0Z" fill-rule="nonzero"/><path stroke="#333333" stroke-width="1.0" stroke-linecap="butt" d="M106.5 475.5L895.5 475.5" fill-rule="nonzero"/><path stroke="#cccccc" stroke-width="1.0" stroke-linecap="butt" d="M106.5 386.5L895.5 386.5" fill-rule="nonzero"/><path stroke="#cccccc" stroke-width="1.0" stroke-linecap="butt" d="M106.5 297.5L895.5 297.5" fill-rule="nonzero"/><path stroke="#cccccc" stroke-width="1.0" stroke-linecap="butt" d="M106.5 207.5L895.5 207.5" fill-rule="nonzero"/><path stroke="#cccccc" stroke-width="1.0" stroke-linecap="butt" d="M106.5 118.5L895.5 118.5" fill-rule="nonzero"/><clipPath id="id_0"><path d="M106.6 118.73333L895.4 118.73333L895.4 475.4L106.6 475.4L106.6 118.73333Z" clip-rule="nonzero"/></clipPath><path stroke="#000000" stroke-width="2.0" stroke-linecap="butt" stroke-opacity="0.0" clip-path="url(#id_0)" d="M192.0 475.0L137.0 475.0L137.0 462.0L192.0 462.0Z" fill-rule="nonzero"/><path fill="#4285f4" clip-path="url(#id_0)" d="M192.0 475.0L137.0 475.0L137.0 462.0L192.0 462.0Z" fill-rule="nonzero"/><path stroke="#000000" stroke-width="2.0" stroke-linecap="butt" stroke-opacity="0.0" clip-path="url(#id_0)" d="M276.0 475.0L221.0 475.0L221.0 455.0L276.0 455.0Z" fill-rule="nonzero"/><path fill="#4285f4" clip-path="url(#id_0)" d="M276.0 475.0L221.0 475.0L221.0 455.0L276.0 455.0Z" fill-rule="nonzero"/><path stroke="#000000" stroke-width="2.0" stroke-linecap="butt" stroke-opacity="0.0" clip-path="url(#id_0)" d="M360.0 475.0L305.0 475.0L305.0 447.0L360.0 447.0Z" fill-rule="nonzero"/><path fill="#4285f4" clip-path="url(#id_0)" d="M360.0 475.0L305.0 475.0L305.0 447.0L360.0 447.0Z" fill-rule="nonzero"/><path stroke="#000000" stroke-width="2.0" stroke-linecap="butt" stroke-opacity="0.0" clip-path="url(#id_0)" d="M445.0 475.0L390.0 475.0L390.0 440.0L445.0 440.0Z" fill-rule="nonzero"/><path fill="#4285f4" clip-path="url(#id_0)" d="M445.0 475.0L390.0 475.0L390.0 440.0L445.0 440.0Z" fill-rule="nonzero"/><path stroke="#000000" stroke-width="2.0" stroke-linecap="butt" stroke-opacity="0.0" clip-path="url(#id_0)" d="M529.0 475.0L474.0 475.0L474.0 432.0L529.0 432.0Z" fill-rule="nonzero"/><path fill="#4285f4" clip-path="url(#id_0)" d="M529.0 475.0L474.0 475.0L474.0 432.0L529.0 432.0Z" fill-rule="nonzero"/><path stroke="#000000" stroke-width="2.0" stroke-linecap="butt" stroke-opacity="0.0" clip-path="url(#id_0)" d="M613.0 475.0L558.0 475.0L558.0 426.0L613.0 426.0Z" fill-rule="nonzero"/><path fill="#4285f4" clip-path="url(#id_0)" d="M613.0 475.0L558.0 475.0L558.0 426.0L613.0 426.0Z" fill-rule="nonzero"/><path stroke="#000000" stroke-width="2.0" stroke-linecap="butt" stroke-opacity="0.0" clip-path="url(#id_0)" d="M698.0 475.0L643.0 475.0L643.0 420.0L698.0 420.0Z" fill-rule="nonzero"/><path fill="#4285f4" clip-path="url(#id_0)" d="M698.0 475.0L643.0 475.0L643.0 420.0L698.0 420.0Z" fill-rule="nonzero"/><path stroke="#000000" stroke-width="2.0" stroke-linecap="butt" stroke-opacity="0.0" clip-path="url(#id_0)" d="M782.0 475.0L727.0 475.0L727.0 403.0L782.0 403.0Z" fill-rule="nonzero"/><path fill="#4285f4" clip-path="url(#id_0)" d="M782.0 475.0L727.0 475.0L727.0 403.0L782.0 403.0Z" fill-rule="nonzero"/><path stroke="#000000" stroke-width="2.0" stroke-linecap="butt" stroke-opacity="0.0" clip-path="url(#id_0)" d="M866.0 475.0L811.0 475.0L811.0 384.0L866.0 384.0Z" fill-rule="nonzero"/><path fill="#4285f4" clip-path="url(#id_0)" d="M866.0 475.0L811.0 475.0L811.0 384.0L866.0 384.0Z" fill-rule="nonzero"/><path stroke="#000000" stroke-width="2.0" stroke-linecap="butt" stroke-opacity="0.0" clip-path="url(#id_0)" d="M192.0 462.0L137.0 462.0L137.0 455.0L192.0 455.0Z" fill-rule="nonzero"/><path fill="#ea4335" clip-path="url(#id_0)" d="M192.0 462.0L137.0 462.0L137.0 455.0L192.0 455.0Z" fill-rule="nonzero"/><path stroke="#000000" stroke-width="2.0" stroke-linecap="butt" stroke-opacity="0.0" clip-path="url(#id_0)" d="M276.0 455.0L221.0 455.0L221.0 448.0L276.0 448.0Z" fill-rule="nonzero"/><path fill="#ea4335" clip-path="url(#id_0)" d="M276.0 455.0L221.0 455.0L221.0 448.0L276.0 448.0Z" fill-rule="nonzero"/><path stroke="#000000" stroke-width="2.0" stroke-linecap="butt" stroke-opacity="0.0" clip-path="url(#id_0)" d="M360.0 447.0L305.0 447.0L305.0 439.0L360.0 439.0Z" fill-rule="nonzero"/><path fill="#ea4335" clip-path="url(#id_0)" d="M360.0 447.0L305.0 447.0L305.0 439.0L360.0 439.0Z" fill-rule="nonzero"/><path stroke="#000000" stroke-width="2.0" stroke-linecap="butt" stroke-opacity="0.0" clip-path="url(#id_0)" d="M445.0 440.0L390.0 440.0L390.0 431.0L445.0 431.0Z" fill-rule="nonzero"/><path fill="#ea4335" clip-path="url(#id_0)" d="M445.0 440.0L390.0 440.0L390.0 431.0L445.0 431.0Z" fill-rule="nonzero"/><path stroke="#000000" stroke-width="2.0" stroke-linecap="butt" stroke-opacity="0.0" clip-path="url(#id_0)" d="M529.0 432.0L474.0 432.0L474.0 422.0L529.0 422.0Z" fill-rule="nonzero"/><path fill="#ea4335" clip-path="url(#id_0)" d="M529.0 432.0L474.0 432.0L474.0 422.0L529.0 422.0Z" fill-rule="nonzero"/><path stroke="#000000" stroke-width="2.0" stroke-linecap="butt" stroke-opacity="0.0" clip-path="url(#id_0)" d="M613.0 426.0L558.0 426.0L558.0 415.0L613.0 415.0Z" fill-rule="nonzero"/><path fill="#ea4335" clip-path="url(#id_0)" d="M613.0 426.0L558.0 426.0L558.0 415.0L613.0 415.0Z" fill-rule="nonzero"/><path stroke="#000000" stroke-width="2.0" stroke-linecap="butt" stroke-opacity="0.0" clip-path="url(#id_0)" d="M698.0 420.0L643.0 420.0L643.0 407.0L698.0 407.0Z" fill-rule="nonzero"/><path fill="#ea4335" clip-path="url(#id_0)" d="M698.0 420.0L643.0 420.0L643.0 407.0L698.0 407.0Z" fill-rule="nonzero"/><path stroke="#000000" stroke-width="2.0" stroke-linecap="butt" stroke-opacity="0.0" clip-path="url(#id_0)" d="M782.0 403.0L727.0 403.0L727.0 389.0L782.0 389.0Z" fill-rule="nonzero"/><path fill="#ea4335" clip-path="url(#id_0)" d="M782.0 403.0L727.0 403.0L727.0 389.0L782.0 389.0Z" fill-rule="nonzero"/><path stroke="#000000" stroke-width="2.0" stroke-linecap="butt" stroke-opacity="0.0" clip-path="url(#id_0)" d="M866.0 384.0L811.0 384.0L811.0 368.0L866.0 368.0Z" fill-rule="nonzero"/><path fill="#ea4335" clip-path="url(#id_0)" d="M866.0 384.0L811.0 384.0L811.0 368.0L866.0 368.0Z" fill-rule="nonzero"/><path stroke="#000000" stroke-width="2.0" stroke-linecap="butt" stroke-opacity="0.0" clip-path="url(#id_0)" d="M192.0 455.0L137.0 455.0L137.0 429.0C137.0 427.89542 137.89543 427.0 139.0 427.0L190.0 427.0C191.10457 427.0 192.0 427.89542 192.0 429.0Z" fill-rule="nonzero"/><path fill="#fbbc04" clip-path="url(#id_0)" d="M192.0 455.0L137.0 455.0L137.0 429.0C137.0 427.89542 137.89543 427.0 139.0 427.0L190.0 427.0C191.10457 427.0 192.0 427.89542 192.0 429.0Z" fill-rule="nonzero"/><path stroke="#000000" stroke-width="2.0" stroke-linecap="butt" stroke-opacity="0.0" clip-path="url(#id_0)" d="M276.0 448.0L221.0 448.0L221.0 405.0C221.0 403.89542 221.89543 403.0 223.0 403.0L274.0 403.0C275.10458 403.0 276.0 403.89542 276.0 405.0Z" fill-rule="nonzero"/><path fill="#fbbc04" clip-path="url(#id_0)" d="M276.0 448.0L221.0 448.0L221.0 405.0C221.0 403.89542 221.89543 403.0 223.0 403.0L274.0 403.0C275.10458 403.0 276.0 403.89542 276.0 405.0Z" fill-rule="nonzero"/><path stroke="#000000" stroke-width="2.0" stroke-linecap="butt" stroke-opacity="0.0" clip-path="url(#id_0)" d="M360.0 439.0L305.0 439.0L305.0 377.0C305.0 375.89542 305.89542 375.0 307.0 375.0L358.0 375.0C359.10458 375.0 360.0 375.89542 360.0 377.0Z" fill-rule="nonzero"/><path fill="#fbbc04" clip-path="url(#id_0)" d="M360.0 439.0L305.0 439.0L305.0 377.0C305.0 375.89542 305.89542 375.0 307.0 375.0L358.0 375.0C359.10458 375.0 360.0 375.89542 360.0 377.0Z" fill-rule="nonzero"/><path stroke="#000000" stroke-width="2.0" stroke-linecap="butt" stroke-opacity="0.0" clip-path="url(#id_0)" d="M445.0 431.0L390.0 431.0L390.0 350.0C390.0 348.89542 390.89542 348.0 392.0 348.0L443.0 348.0C444.10458 348.0 445.0 348.89542 445.0 350.0Z" fill-rule="nonzero"/><path fill="#fbbc04" clip-path="url(#id_0)" d="M445.0 431.0L390.0 431.0L390.0 350.0C390.0 348.89542 390.89542 348.0 392.0 348.0L443.0 348.0C444.10458 348.0 445.0 348.89542 445.0 350.0Z" fill-rule="nonzero"/><path stroke="#000000" stroke-width="2.0" stroke-linecap="butt" stroke-opacity="0.0" clip-path="url(#id_0)" d="M529.0 422.0L474.0 422.0L474.0 325.0C474.0 323.89542 474.89542 323.0 476.0 323.0L527.0 323.0C528.10455 323.0 529.0 323.89542 529.0 325.0Z" fill-rule="nonzero"/><path fill="#fbbc04" clip-path="url(#id_0)" d="M529.0 422.0L474.0 422.0L474.0 325.0C474.0 323.89542 474.89542 323.0 476.0 323.0L527.0 323.0C528.10455 323.0 529.0 323.89542 529.0 325.0Z" fill-rule="nonzero"/><path stroke="#000000" stroke-width="2.0" stroke-linecap="butt" stroke-opacity="0.0" clip-path="url(#id_0)" d="M613.0 415.0L558.0 415.0L558.0 299.0C558.0 297.89542 558.89545 297.0 560.0 297.0L611.0 297.0C612.10455 297.0 613.0 297.89542 613.0 299.0Z" fill-rule="nonzero"/><path fill="#fbbc04" clip-path="url(#id_0)" d="M613.0 415.0L558.0 415.0L558.0 299.0C558.0 297.89542 558.89545 297.0 560.0 297.0L611.0 297.0C612.10455 297.0 613.0 297.89542 613.0 299.0Z" fill-rule="nonzero"/><path stroke="#000000" stroke-width="2.0" stroke-linecap="butt" stroke-opacity="0.0" clip-path="url(#id_0)" d="M698.0 407.0L643.0 407.0L643.0 271.0C643.0 269.89542 643.89545 269.0 645.0 269.0L696.0 269.0C697.10455 269.0 698.0 269.89542 698.0 271.0Z" fill-rule="nonzero"/><path fill="#fbbc04" clip-path="url(#id_0)" d="M698.0 407.0L643.0 407.0L643.0 271.0C643.0 269.89542 643.89545 269.0 645.0 269.0L696.0 269.0C697.10455 269.0 698.0 269.89542 698.0 271.0Z" fill-rule="nonzero"/><path stroke="#000000" stroke-width="2.0" stroke-linecap="butt" stroke-opacity="0.0" clip-path="url(#id_0)" d="M782.0 389.0L727.0 389.0L727.0 221.0C727.0 219.89543 727.89545 219.0 729.0 219.0L780.0 219.0C781.10455 219.0 782.0 219.89543 782.0 221.0Z" fill-rule="nonzero"/><path fill="#fbbc04" clip-path="url(#id_0)" d="M782.0 389.0L727.0 389.0L727.0 221.0C727.0 219.89543 727.89545 219.0 729.0 219.0L780.0 219.0C781.10455 219.0 782.0 219.89543 782.0 221.0Z" fill-rule="nonzero"/><path stroke="#000000" stroke-width="2.0" stroke-linecap="butt" stroke-opacity="0.0" clip-path="url(#id_0)" d="M866.0 368.0L811.0 368.0L811.0 183.0C811.0 181.89543 811.89545 181.0 813.0 181.0L864.0 181.0C865.10455 181.0 866.0 181.89543 866.0 183.0Z" fill-rule="nonzero"/><path fill="#fbbc04" clip-path="url(#id_0)" d="M866.0 368.0L811.0 368.0L811.0 183.0C811.0 181.89543 811.89545 181.0 813.0 181.0L864.0 181.0C865.10455 181.0 866.0 181.89543 866.0 183.0Z" fill-rule="nonzero"/><path fill="#000000" d="M484.8125 535.2594L486.42188 535.1188Q486.53125 536.0875 486.9375 536.7125Q487.35938 537.3219 488.23438 537.7125Q489.125 538.0875 490.21875 538.0875Q491.20312 538.0875 491.9375 537.8063Q492.6875 537.5094 493.04688 537.0094Q493.42188 536.4938 493.42188 535.9Q493.42188 535.29065 493.0625 534.8375Q492.71875 534.3844 491.90625 534.0875Q491.39062 533.8844 489.60938 533.4625Q487.84375 533.025 487.125 532.65Q486.20312 532.16565 485.75 531.4469Q485.29688 530.72815 485.29688 529.85315Q485.29688 528.8688 485.84375 528.025Q486.40625 527.1813 487.46875 526.7438Q488.53125 526.29065 489.84375 526.29065Q491.26562 526.29065 492.35938 526.7594Q493.45312 527.2125 494.04688 528.1188Q494.64062 529.0094 494.67188 530.15L493.04688 530.275Q492.90625 529.04065 492.14062 528.41565Q491.39062 527.79065 489.90625 527.79065Q488.35938 527.79065 487.64062 528.3688Q486.9375 528.9313 486.9375 529.72815Q486.9375 530.4313 487.45312 530.8688Q487.9375 531.3219 490.01562 531.79065Q492.09375 532.2594 492.875 532.6188Q494.0 533.1344 494.53125 533.9313Q495.0625 534.72815 495.0625 535.7594Q495.0625 536.79065 494.46875 537.6969Q493.89062 538.60315 492.78125 539.1188Q491.6875 539.6188 490.29688 539.6188Q488.54688 539.6188 487.35938 539.1188Q486.1875 538.60315 485.51562 537.5875Q484.84375 536.5563 484.8125 535.2594ZM497.20312 528.3375L497.20312 526.5094L498.78125 526.5094L498.78125 528.3375L497.20312 528.3375ZM497.20312 539.4L497.20312 530.0719L498.78125 530.0719L498.78125 539.4L497.20312 539.4ZM500.35938 539.4L500.35938 538.1188L506.29688 531.29065Q505.28125 531.35315 504.51562 531.35315L500.70312 531.35315L500.70312 530.0719L508.32812 530.0719L508.32812 531.1188L503.28125 537.04065L502.29688 538.1188Q503.35938 538.04065 504.29688 538.04065L508.60938 538.04065L508.60938 539.4L500.35938 539.4ZM515.5781 536.4L517.21875 536.60315Q516.8281 538.025 515.78125 538.8219Q514.7344 539.6188 513.1094 539.6188Q511.0625 539.6188 509.85938 538.35315Q508.65625 537.0875 508.65625 534.8063Q508.65625 532.4625 509.85938 531.16565Q511.07812 529.85315 513.0156 529.85315Q514.8906 529.85315 516.0781 531.1344Q517.2656 532.4 517.2656 534.7125Q517.2656 534.85315 517.25 535.1344L510.29688 535.1344Q510.375 536.6813 511.15625 537.4938Q511.95312 538.3063 513.1094 538.3063Q513.9844 538.3063 514.59375 537.85315Q515.21875 537.4 515.5781 536.4ZM510.375 533.8375L515.59375 533.8375Q515.4844 532.66565 515.0 532.0719Q514.2344 531.15 513.03125 531.15Q511.95312 531.15 511.20312 531.8844Q510.46875 532.6188 510.375 533.8375Z" fill-rule="nonzero"/><path fill="#000000" d="M45.600025 331.89478L34.24065 331.89478L34.24065 336.14478L32.7094 336.14478L32.7094 325.92603L34.24065 325.92603L34.24065 330.19165L45.600025 330.19165L45.600025 331.89478ZM34.537525 323.36353L32.7094 323.36353L32.7094 321.7854L34.537525 321.7854L34.537525 323.36353ZM45.600025 323.36353L36.2719 323.36353L36.2719 321.7854L45.600025 321.7854L45.600025 323.36353ZM45.600025 319.37915L36.2719 319.37915L36.2719 317.95728L37.568775 317.95728Q36.8969 317.51978 36.475025 316.80103Q36.05315 316.06665 36.05315 315.12915Q36.05315 314.0979 36.49065 313.44165Q36.912525 312.76978 37.693775 312.50415Q36.05315 311.39478 36.05315 309.61353Q36.05315 308.2229 36.8344 307.48853Q37.600025 306.73853 39.193775 306.73853L45.600025 306.73853L45.600025 308.30103L39.725025 308.30103Q38.7719 308.30103 38.350025 308.45728Q37.92815 308.61353 37.67815 309.01978Q37.42815 309.42603 37.42815 309.9729Q37.42815 310.95728 38.0844 311.61353Q38.74065 312.25415 40.17815 312.25415L45.600025 312.25415L45.600025 313.83228L39.537525 313.83228Q38.475025 313.83228 37.9594 314.2229Q37.42815 314.61353 37.42815 315.48853Q37.42815 316.1604 37.787525 316.7229Q38.131275 317.2854 38.80315 317.55103Q39.475025 317.80103 40.756275 317.80103L45.600025 317.80103L45.600025 319.37915ZM42.600025 298.98853L42.80315 297.3479Q44.225025 297.73853 45.0219 298.7854Q45.818775 299.83228 45.818775 301.45728Q45.818775 303.50415 44.55315 304.70728Q43.287525 305.9104 41.006275 305.9104Q38.662525 305.9104 37.36565 304.70728Q36.05315 303.48853 36.05315 301.55103Q36.05315 299.67603 37.3344 298.48853Q38.600025 297.30103 40.912525 297.30103Q41.05315 297.30103 41.3344 297.31665L41.3344 304.26978Q42.881275 304.19165 43.693775 303.4104Q44.506275 302.61353 44.506275 301.45728Q44.506275 300.58228 44.05315 299.9729Q43.600025 299.3479 42.600025 298.98853ZM40.037525 304.19165L40.037525 298.9729Q38.86565 299.08228 38.2719 299.56665Q37.350025 300.33228 37.350025 301.5354Q37.350025 302.61353 38.0844 303.36353Q38.818775 304.0979 40.037525 304.19165ZM49.381275 287.36353Q47.74065 288.6604 45.5219 289.56665Q43.30315 290.4729 40.92815 290.4729Q38.8344 290.4729 36.92815 289.80103Q34.693775 289.00415 32.49065 287.36353L32.49065 286.2229Q34.318775 287.2854 35.100025 287.62915Q36.318775 288.1604 37.631275 288.4729Q39.287525 288.8479 40.943775 288.8479Q45.162525 288.8479 49.381275 286.2229L49.381275 287.36353ZM42.818775 285.01978L42.568775 283.44165Q43.506275 283.31665 44.006275 282.7229Q44.506275 282.11353 44.506275 281.0354Q44.506275 279.94165 44.068775 279.4104Q43.61565 278.87915 43.0219 278.87915Q42.49065 278.87915 42.17815 279.3479Q41.975025 279.67603 41.6469 280.9729Q41.2094 282.70728 40.8969 283.37915Q40.568775 284.05103 40.006275 284.4104Q39.42815 284.75415 38.74065 284.75415Q38.11565 284.75415 37.5844 284.4729Q37.05315 284.17603 36.7094 283.69165Q36.42815 283.31665 36.24065 282.67603Q36.05315 282.0354 36.05315 281.31665Q36.05315 280.20728 36.381275 279.37915Q36.693775 278.55103 37.24065 278.1604Q37.7719 277.75415 38.67815 277.61353L38.881275 279.1604Q38.162525 279.26978 37.756275 279.76978Q37.350025 280.26978 37.350025 281.19165Q37.350025 282.2854 37.7094 282.75415Q38.068775 283.2229 38.55315 283.2229Q38.86565 283.2229 39.11565 283.01978Q39.36565 282.83228 39.537525 282.42603Q39.61565 282.17603 39.943775 281.01978Q40.381275 279.3479 40.67815 278.69165Q40.9594 278.01978 41.506275 277.64478Q42.05315 277.25415 42.850025 277.25415Q43.6469 277.25415 44.350025 277.7229Q45.05315 278.17603 45.443775 279.05103Q45.818775 279.92603 45.818775 281.01978Q45.818775 282.8479 45.068775 283.80103Q44.30315 284.75415 42.818775 285.01978ZM49.381275 274.3479L49.381275 275.4729Q45.162525 272.8479 40.943775 272.8479Q39.287525 272.8479 37.662525 273.2229Q36.350025 273.51978 35.131275 274.06665Q34.3344 274.4104 32.49065 275.4729L32.49065 274.3479Q34.693775 272.69165 36.92815 271.89478Q38.8344 271.2229 40.92815 271.2229Q43.30315 271.2229 45.5219 272.12915Q47.74065 273.0354 49.381275 274.3479Z" fill-rule="nonzero"/><path fill="#000000" d="M77.1 475.16562Q77.1 473.63437 77.4125 472.7125Q77.725 471.775 78.33437 471.275Q78.95937 470.775 79.89687 470.775Q80.58437 470.775 81.1 471.05624Q81.63125 471.3375 81.975 471.86874Q82.31875 472.38437 82.50625 473.13437Q82.69375 473.88437 82.69375 475.16562Q82.69375 476.68124 82.38125 477.60312Q82.08437 478.525 81.45937 479.04062Q80.85 479.54062 79.89687 479.54062Q78.6625 479.54062 77.94375 478.65Q77.1 477.5875 77.1 475.16562ZM78.17812 475.16562Q78.17812 477.275 78.67812 477.97812Q79.17812 478.68124 79.89687 478.68124Q80.63125 478.68124 81.11562 477.97812Q81.61562 477.275 81.61562 475.16562Q81.61562 473.04062 81.11562 472.35312Q80.63125 471.65 79.88125 471.65Q79.1625 471.65 78.725 472.25937Q78.17812 473.04062 78.17812 475.16562ZM84.6625 479.4L84.6625 478.19687L85.86562 478.19687L85.86562 479.4Q85.86562 480.05624 85.63125 480.4625Q85.39687 480.88437 84.89687 481.10312L84.6 480.65Q84.92812 480.50937 85.08437 480.2125Q85.24062 479.93124 85.27187 479.4L84.6625 479.4ZM87.1 475.16562Q87.1 473.63437 87.4125 472.7125Q87.725 471.775 88.33437 471.275Q88.95937 470.775 89.89687 470.775Q90.58437 470.775 91.1 471.05624Q91.63125 471.3375 91.975 471.86874Q92.31875 472.38437 92.50625 473.13437Q92.69375 473.88437 92.69375 475.16562Q92.69375 476.68124 92.38125 477.60312Q92.08437 478.525 91.45937 479.04062Q90.85 479.54062 89.89687 479.54062Q88.6625 479.54062 87.94375 478.65Q87.1 477.5875 87.1 475.16562ZM88.17812 475.16562Q88.17812 477.275 88.67812 477.97812Q89.17812 478.68124 89.89687 478.68124Q90.63125 478.68124 91.11562 477.97812Q91.61562 477.275 91.61562 475.16562Q91.61562 473.04062 91.11562 472.35312Q90.63125 471.65 89.88125 471.65Q89.1625 471.65 88.725 472.25937Q88.17812 473.04062 88.17812 475.16562ZM94.1 475.16562Q94.1 473.63437 94.4125 472.7125Q94.725 471.775 95.33437 471.275Q95.95937 470.775 96.89687 470.775Q97.58437 470.775 98.1 471.05624Q98.63125 471.3375 98.975 471.86874Q99.31875 472.38437 99.50625 473.13437Q99.69375 473.88437 99.69375 475.16562Q99.69375 476.68124 99.38125 477.60312Q99.08437 478.525 98.45937 479.04062Q97.85 479.54062 96.89687 479.54062Q95.6625 479.54062 94.94375 478.65Q94.1 477.5875 94.1 475.16562ZM95.17812 475.16562Q95.17812 477.275 95.67812 477.97812Q96.17812 478.68124 96.89687 478.68124Q97.63125 478.68124 98.11562 477.97812Q98.61562 477.275 98.61562 475.16562Q98.61562 473.04062 98.11562 472.35312Q97.63125 471.65 96.88125 471.65Q96.1625 471.65 95.725 472.25937Q95.17812 473.04062 95.17812 475.16562Z" fill-rule="nonzero"/><path fill="#000000" d="M77.1 385.99896Q77.1 384.4677 77.4125 383.54584Q77.725 382.60834 78.33437 382.10834Q78.95937 381.60834 79.89687 381.60834Q80.58437 381.60834 81.1 381.8896Q81.63125 382.17084 81.975 382.7021Q82.31875 383.2177 82.50625 383.9677Q82.69375 384.7177 82.69375 385.99896Q82.69375 387.5146 82.38125 388.43646Q82.08437 389.35834 81.45937 389.87396Q80.85 390.37396 79.89687 390.37396Q78.6625 390.37396 77.94375 389.48334Q77.1 388.42084 77.1 385.99896ZM78.17812 385.99896Q78.17812 388.10834 78.67812 388.81146Q79.17812 389.5146 79.89687 389.5146Q80.63125 389.5146 81.11562 388.81146Q81.61562 388.10834 81.61562 385.99896Q81.61562 383.87396 81.11562 383.18646Q80.63125 382.48334 79.88125 382.48334Q79.1625 382.48334 78.725 383.0927Q78.17812 383.87396 78.17812 385.99896ZM84.6625 390.23334L84.6625 389.0302L85.86562 389.0302L85.86562 390.23334Q85.86562 390.8896 85.63125 391.29584Q85.39687 391.7177 84.89687 391.93646L84.6 391.48334Q84.92812 391.3427 85.08437 391.04584Q85.24062 390.7646 85.27187 390.23334L84.6625 390.23334ZM87.1 385.99896Q87.1 384.4677 87.4125 383.54584Q87.725 382.60834 88.33437 382.10834Q88.95937 381.60834 89.89687 381.60834Q90.58437 381.60834 91.1 381.8896Q91.63125 382.17084 91.975 382.7021Q92.31875 383.2177 92.50625 383.9677Q92.69375 384.7177 92.69375 385.99896Q92.69375 387.5146 92.38125 388.43646Q92.08437 389.35834 91.45937 389.87396Q90.85 390.37396 89.89687 390.37396Q88.6625 390.37396 87.94375 389.48334Q87.1 388.42084 87.1 385.99896ZM88.17812 385.99896Q88.17812 388.10834 88.67812 388.81146Q89.17812 389.5146 89.89687 389.5146Q90.63125 389.5146 91.11562 388.81146Q91.61562 388.10834 91.61562 385.99896Q91.61562 383.87396 91.11562 383.18646Q90.63125 382.48334 89.88125 382.48334Q89.1625 382.48334 88.725 383.0927Q88.17812 383.87396 88.17812 385.99896ZM94.1 385.99896Q94.1 384.4677 94.4125 383.54584Q94.725 382.60834 95.33437 382.10834Q95.95937 381.60834 96.89687 381.60834Q97.58437 381.60834 98.1 381.8896Q98.63125 382.17084 98.975 382.7021Q99.31875 383.2177 99.50625 383.9677Q99.69375 384.7177 99.69375 385.99896Q99.69375 387.5146 99.38125 388.43646Q99.08437 389.35834 98.45937 389.87396Q97.85 390.37396 96.89687 390.37396Q95.6625 390.37396 94.94375 389.48334Q94.1 388.42084 94.1 385.99896ZM95.17812 385.99896Q95.17812 388.10834 95.67812 388.81146Q96.17812 389.5146 96.89687 389.5146Q97.63125 389.5146 98.11562 388.81146Q98.61562 388.10834 98.61562 385.99896Q98.61562 383.87396 98.11562 383.18646Q97.63125 382.48334 96.88125 382.48334Q96.1625 382.48334 95.725 383.0927Q95.17812 383.87396 95.17812 385.99896Z" fill-rule="nonzero"/><path fill="#000000" d="M77.1 296.8323Q77.1 295.30106 77.4125 294.37918Q77.725 293.44168 78.33437 292.94168Q78.95937 292.44168 79.89687 292.44168Q80.58437 292.44168 81.1 292.72293Q81.63125 293.00418 81.975 293.53543Q82.31875 294.05106 82.50625 294.80106Q82.69375 295.55106 82.69375 296.8323Q82.69375 298.34793 82.38125 299.2698Q82.08437 300.19168 81.45937 300.7073Q80.85 301.2073 79.89687 301.2073Q78.6625 301.2073 77.94375 300.31668Q77.1 299.25418 77.1 296.8323ZM78.17812 296.8323Q78.17812 298.94168 78.67812 299.6448Q79.17812 300.34793 79.89687 300.34793Q80.63125 300.34793 81.11562 299.6448Q81.61562 298.94168 81.61562 296.8323Q81.61562 294.7073 81.11562 294.0198Q80.63125 293.31668 79.88125 293.31668Q79.1625 293.31668 78.725 293.92606Q78.17812 294.7073 78.17812 296.8323ZM84.6625 301.06668L84.6625 299.86356L85.86562 299.86356L85.86562 301.06668Q85.86562 301.72293 85.63125 302.12918Q85.39687 302.55106 84.89687 302.7698L84.6 302.31668Q84.92812 302.17606 85.08437 301.87918Q85.24062 301.59793 85.27187 301.06668L84.6625 301.06668ZM87.1 296.8323Q87.1 295.30106 87.4125 294.37918Q87.725 293.44168 88.33437 292.94168Q88.95937 292.44168 89.89687 292.44168Q90.58437 292.44168 91.1 292.72293Q91.63125 293.00418 91.975 293.53543Q92.31875 294.05106 92.50625 294.80106Q92.69375 295.55106 92.69375 296.8323Q92.69375 298.34793 92.38125 299.2698Q92.08437 300.19168 91.45937 300.7073Q90.85 301.2073 89.89687 301.2073Q88.6625 301.2073 87.94375 300.31668Q87.1 299.25418 87.1 296.8323ZM88.17812 296.8323Q88.17812 298.94168 88.67812 299.6448Q89.17812 300.34793 89.89687 300.34793Q90.63125 300.34793 91.11562 299.6448Q91.61562 298.94168 91.61562 296.8323Q91.61562 294.7073 91.11562 294.0198Q90.63125 293.31668 89.88125 293.31668Q89.1625 293.31668 88.725 293.92606Q88.17812 294.7073 88.17812 296.8323ZM94.1 296.8323Q94.1 295.30106 94.4125 294.37918Q94.725 293.44168 95.33437 292.94168Q95.95937 292.44168 96.89687 292.44168Q97.58437 292.44168 98.1 292.72293Q98.63125 293.00418 98.975 293.53543Q99.31875 294.05106 99.50625 294.80106Q99.69375 295.55106 99.69375 296.8323Q99.69375 298.34793 99.38125 299.2698Q99.08437 300.19168 98.45937 300.7073Q97.85 301.2073 96.89687 301.2073Q95.6625 301.2073 94.94375 300.31668Q94.1 299.25418 94.1 296.8323ZM95.17812 296.8323Q95.17812 298.94168 95.67812 299.6448Q96.17812 300.34793 96.89687 300.34793Q97.63125 300.34793 98.11562 299.6448Q98.61562 298.94168 98.61562 296.8323Q98.61562 294.7073 98.11562 294.0198Q97.63125 293.31668 96.88125 293.31668Q96.1625 293.31668 95.725 293.92606Q95.17812 294.7073 95.17812 296.8323Z" fill-rule="nonzero"/><path fill="#000000" d="M77.1 207.66562Q77.1 206.13437 77.4125 205.2125Q77.725 204.275 78.33437 203.775Q78.95937 203.275 79.89687 203.275Q80.58437 203.275 81.1 203.55624Q81.63125 203.8375 81.975 204.36874Q82.31875 204.88437 82.50625 205.63437Q82.69375 206.38437 82.69375 207.66562Q82.69375 209.18124 82.38125 210.10312Q82.08437 211.025 81.45937 211.54062Q80.85 212.04062 79.89687 212.04062Q78.6625 212.04062 77.94375 211.15Q77.1 210.0875 77.1 207.66562ZM78.17812 207.66562Q78.17812 209.775 78.67812 210.47812Q79.17812 211.18124 79.89687 211.18124Q80.63125 211.18124 81.11562 210.47812Q81.61562 209.775 81.61562 207.66562Q81.61562 205.54062 81.11562 204.85312Q80.63125 204.15 79.88125 204.15Q79.1625 204.15 78.725 204.75937Q78.17812 205.54062 78.17812 207.66562ZM84.6625 211.9L84.6625 210.69687L85.86562 210.69687L85.86562 211.9Q85.86562 212.55624 85.63125 212.9625Q85.39687 213.38437 84.89687 213.60312L84.6 213.15Q84.92812 213.00937 85.08437 212.7125Q85.24062 212.43124 85.27187 211.9L84.6625 211.9ZM87.1 207.66562Q87.1 206.13437 87.4125 205.2125Q87.725 204.275 88.33437 203.775Q88.95937 203.275 89.89687 203.275Q90.58437 203.275 91.1 203.55624Q91.63125 203.8375 91.975 204.36874Q92.31875 204.88437 92.50625 205.63437Q92.69375 206.38437 92.69375 207.66562Q92.69375 209.18124 92.38125 210.10312Q92.08437 211.025 91.45937 211.54062Q90.85 212.04062 89.89687 212.04062Q88.6625 212.04062 87.94375 211.15Q87.1 210.0875 87.1 207.66562ZM88.17812 207.66562Q88.17812 209.775 88.67812 210.47812Q89.17812 211.18124 89.89687 211.18124Q90.63125 211.18124 91.11562 210.47812Q91.61562 209.775 91.61562 207.66562Q91.61562 205.54062 91.11562 204.85312Q90.63125 204.15 89.88125 204.15Q89.1625 204.15 88.725 204.75937Q88.17812 205.54062 88.17812 207.66562ZM98.06875 211.9L97.02187 211.9L97.02187 205.18124Q96.63125 205.54062 96.00625 205.91562Q95.39687 206.275 94.9125 206.44687L94.9125 205.43124Q95.7875 205.00937 96.44375 204.43124Q97.11562 203.8375 97.39687 203.275L98.06875 203.275L98.06875 211.9Z" fill-rule="nonzero"/><path fill="#000000" d="M77.1 118.498955Q77.1 116.967705 77.4125 116.04583Q77.725 115.10833 78.33437 114.60833Q78.95937 114.10833 79.89687 114.10833Q80.58437 114.10833 81.1 114.38958Q81.63125 114.67083 81.975 115.20208Q82.31875 115.717705 82.50625 116.467705Q82.69375 117.217705 82.69375 118.498955Q82.69375 120.01458 82.38125 120.936455Q82.08437 121.85833 81.45937 122.373955Q80.85 122.873955 79.89687 122.873955Q78.6625 122.873955 77.94375 121.98333Q77.1 120.92083 77.1 118.498955ZM78.17812 118.498955Q78.17812 120.60833 78.67812 121.311455Q79.17812 122.01458 79.89687 122.01458Q80.63125 122.01458 81.11562 121.311455Q81.61562 120.60833 81.61562 118.498955Q81.61562 116.373955 81.11562 115.686455Q80.63125 114.98333 79.88125 114.98333Q79.1625 114.98333 78.725 115.592705Q78.17812 116.373955 78.17812 118.498955ZM84.6625 122.73333L84.6625 121.530205L85.86562 121.530205L85.86562 122.73333Q85.86562 123.38958 85.63125 123.79583Q85.39687 124.217705 84.89687 124.436455L84.6 123.98333Q84.92812 123.842705 85.08437 123.54583Q85.24062 123.26458 85.27187 122.73333L84.6625 122.73333ZM87.1 118.498955Q87.1 116.967705 87.4125 116.04583Q87.725 115.10833 88.33437 114.60833Q88.95937 114.10833 89.89687 114.10833Q90.58437 114.10833 91.1 114.38958Q91.63125 114.67083 91.975 115.20208Q92.31875 115.717705 92.50625 116.467705Q92.69375 117.217705 92.69375 118.498955Q92.69375 120.01458 92.38125 120.936455Q92.08437 121.85833 91.45937 122.373955Q90.85 122.873955 89.89687 122.873955Q88.6625 122.873955 87.94375 121.98333Q87.1 120.92083 87.1 118.498955ZM88.17812 118.498955Q88.17812 120.60833 88.67812 121.311455Q89.17812 122.01458 89.89687 122.01458Q90.63125 122.01458 91.11562 121.311455Q91.61562 120.60833 91.61562 118.498955Q91.61562 116.373955 91.11562 115.686455Q90.63125 114.98333 89.88125 114.98333Q89.1625 114.98333 88.725 115.592705Q88.17812 116.373955 88.17812 118.498955ZM98.06875 122.73333L97.02187 122.73333L97.02187 116.01458Q96.63125 116.373955 96.00625 116.748955Q95.39687 117.10833 94.9125 117.280205L94.9125 116.26458Q95.7875 115.842705 96.44375 115.26458Q97.11562 114.67083 97.39687 114.10833L98.06875 114.10833L98.06875 122.73333Z" fill-rule="nonzero"/><path fill="#000000" d="M147.0142 492.4L145.96733 492.4L145.96733 485.68124Q145.5767 486.04062 144.9517 486.41562Q144.34233 486.775 143.85796 486.94687L143.85796 485.93124Q144.73296 485.50937 145.3892 484.93124Q146.06108 484.3375 146.34233 483.775L147.0142 483.775L147.0142 492.4ZM150.04546 490.13437L151.10796 489.99374Q151.27983 490.88437 151.71733 491.29062Q152.15483 491.68124 152.77983 491.68124Q153.52983 491.68124 154.04546 491.16562Q154.56108 490.65 154.56108 489.88437Q154.56108 489.16562 154.0767 488.69687Q153.60796 488.2125 152.87358 488.2125Q152.5767 488.2125 152.12358 488.3375L152.24858 487.4Q152.35796 487.41562 152.42046 487.41562Q153.09233 487.41562 153.62358 487.07187Q154.17046 486.7125 154.17046 485.97812Q154.17046 485.4 153.77983 485.025Q153.3892 484.63437 152.7642 484.63437Q152.15483 484.63437 151.73296 485.025Q151.3267 485.41562 151.21733 486.18124L150.15483 485.99374Q150.34233 484.94687 151.02983 484.36874Q151.71733 483.775 152.73296 483.775Q153.43608 483.775 154.02983 484.0875Q154.62358 484.38437 154.93608 484.9Q155.24858 485.41562 155.24858 486.00937Q155.24858 486.55624 154.9517 487.025Q154.65483 487.47812 154.0767 487.74374Q154.8267 487.91562 155.24858 488.47812Q155.67046 489.025 155.67046 489.86874Q155.67046 490.99374 154.84233 491.775Q154.02983 492.55624 152.77983 492.55624Q151.65483 492.55624 150.90483 491.88437Q150.15483 491.19687 150.04546 490.13437ZM161.0142 492.4L159.96733 492.4L159.96733 485.68124Q159.5767 486.04062 158.9517 486.41562Q158.34233 486.775 157.85796 486.94687L157.85796 485.93124Q158.73296 485.50937 159.3892 484.93124Q160.06108 484.3375 160.34233 483.775L161.0142 483.775L161.0142 492.4ZM164.04546 488.16562Q164.04546 486.63437 164.35796 485.7125Q164.67046 484.775 165.27983 484.275Q165.90483 483.775 166.84233 483.775Q167.52983 483.775 168.04546 484.05624Q168.5767 484.3375 168.92046 484.86874Q169.2642 485.38437 169.4517 486.13437Q169.6392 486.88437 169.6392 488.16562Q169.6392 489.68124 169.3267 490.60312Q169.02983 491.525 168.40483 492.04062Q167.79546 492.54062 166.84233 492.54062Q165.60796 492.54062 164.8892 491.65Q164.04546 490.5875 164.04546 488.16562ZM165.12358 488.16562Q165.12358 490.275 165.62358 490.97812Q166.12358 491.68124 166.84233 491.68124Q167.5767 491.68124 168.06108 490.97812Q168.56108 490.275 168.56108 488.16562Q168.56108 486.04062 168.06108 485.35312Q167.5767 484.65 166.8267 484.65Q166.10796 484.65 165.67046 485.25937Q165.12358 486.04062 165.12358 488.16562ZM171.10796 484.93124L171.10796 483.91562L176.67046 483.91562L176.67046 484.74374Q175.85796 485.61874 175.04546 487.07187Q174.24858 488.50937 173.81108 490.04062Q173.48296 491.11874 173.40483 492.4L172.31108 492.4Q172.3267 491.38437 172.7017 489.94687Q173.09233 488.50937 173.79546 487.18124Q174.5142 485.85312 175.3267 484.93124L171.10796 484.93124ZM178.04546 488.16562Q178.04546 486.63437 178.35796 485.7125Q178.67046 484.775 179.27983 484.275Q179.90483 483.775 180.84233 483.775Q181.52983 483.775 182.04546 484.05624Q182.5767 484.3375 182.92046 484.86874Q183.2642 485.38437 183.4517 486.13437Q183.6392 486.88437 183.6392 488.16562Q183.6392 489.68124 183.3267 490.60312Q183.02983 491.525 182.40483 492.04062Q181.79546 492.54062 180.84233 492.54062Q179.60796 492.54062 178.8892 491.65Q178.04546 490.5875 178.04546 488.16562ZM179.12358 488.16562Q179.12358 490.275 179.62358 490.97812Q180.12358 491.68124 180.84233 491.68124Q181.5767 491.68124 182.06108 490.97812Q182.56108 490.275 182.56108 488.16562Q182.56108 486.04062 182.06108 485.35312Q181.5767 484.65 180.8267 484.65Q180.10796 484.65 179.67046 485.25937Q179.12358 486.04062 179.12358 488.16562Z" fill-rule="nonzero"/><path fill="#000000" d="M232.95596 491.38437L232.95596 492.4L227.26846 492.4Q227.26846 492.025 227.39346 491.66562Q227.61221 491.0875 228.08096 490.525Q228.56534 489.9625 229.47159 489.22812Q230.87784 488.07187 231.36221 487.4Q231.86221 486.72812 231.86221 486.13437Q231.86221 485.50937 231.40909 485.0875Q230.95596 484.65 230.23721 484.65Q229.47159 484.65 229.01846 485.10312Q228.56534 485.55624 228.54971 486.36874L227.47159 486.25937Q227.58096 485.04062 228.29971 484.41562Q229.03409 483.775 230.26846 483.775Q231.50284 483.775 232.22159 484.4625Q232.94034 485.15 232.94034 486.16562Q232.94034 486.68124 232.72159 487.18124Q232.51846 487.66562 232.01846 488.22812Q231.53409 488.775 230.40909 489.72812Q229.45596 490.525 229.17471 490.82187Q228.90909 491.10312 228.73721 491.38437L232.95596 491.38437ZM234.40909 490.13437L235.47159 489.99374Q235.64346 490.88437 236.08096 491.29062Q236.51846 491.68124 237.14346 491.68124Q237.89346 491.68124 238.40909 491.16562Q238.92471 490.65 238.92471 489.88437Q238.92471 489.16562 238.44034 488.69687Q237.97159 488.2125 237.23721 488.2125Q236.94034 488.2125 236.48721 488.3375L236.61221 487.4Q236.72159 487.41562 236.78409 487.41562Q237.45596 487.41562 237.98721 487.07187Q238.53409 486.7125 238.53409 485.97812Q238.53409 485.4 238.14346 485.025Q237.75284 484.63437 237.12784 484.63437Q236.51846 484.63437 236.09659 485.025Q235.69034 485.41562 235.58096 486.18124L234.51846 485.99374Q234.70596 484.94687 235.39346 484.36874Q236.08096 483.775 237.09659 483.775Q237.79971 483.775 238.39346 484.0875Q238.98721 484.38437 239.29971 484.9Q239.61221 485.41562 239.61221 486.00937Q239.61221 486.55624 239.31534 487.025Q239.01846 487.47812 238.44034 487.74374Q239.19034 487.91562 239.61221 488.47812Q240.03409 489.025 240.03409 489.86874Q240.03409 490.99374 239.20596 491.775Q238.39346 492.55624 237.14346 492.55624Q236.01846 492.55624 235.26846 491.88437Q234.51846 491.19687 234.40909 490.13437ZM245.37784 492.4L244.33096 492.4L244.33096 485.68124Q243.94034 486.04062 243.31534 486.41562Q242.70596 486.775 242.22159 486.94687L242.22159 485.93124Q243.09659 485.50937 243.75284 484.93124Q244.42471 484.3375 244.70596 483.775L245.37784 483.775L245.37784 492.4ZM248.40909 488.16562Q248.40909 486.63437 248.72159 485.7125Q249.03409 484.775 249.64346 484.275Q250.26846 483.775 251.20596 483.775Q251.89346 483.775 252.40909 484.05624Q252.94034 484.3375 253.28409 484.86874Q253.62784 485.38437 253.81534 486.13437Q254.00284 486.88437 254.00284 488.16562Q254.00284 489.68124 253.69034 490.60312Q253.39346 491.525 252.76846 492.04062Q252.15909 492.54062 251.20596 492.54062Q249.97159 492.54062 249.25284 491.65Q248.40909 490.5875 248.40909 488.16562ZM249.48721 488.16562Q249.48721 490.275 249.98721 490.97812Q250.48721 491.68124 251.20596 491.68124Q251.94034 491.68124 252.42471 490.97812Q252.92471 490.275 252.92471 488.16562Q252.92471 486.04062 252.42471 485.35312Q251.94034 484.65 251.19034 484.65Q250.47159 484.65 250.03409 485.25937Q249.48721 486.04062 249.48721 488.16562ZM255.47159 484.93124L255.47159 483.91562L261.0341 483.91562L261.0341 484.74374Q260.2216 485.61874 259.4091 487.07187Q258.6122 488.50937 258.1747 490.04062Q257.8466 491.11874 257.76846 492.4L256.6747 492.4Q256.69034 491.38437 257.06534 489.94687Q257.45596 488.50937 258.1591 487.18124Q258.87784 485.85312 259.69034 484.93124L255.47159 484.93124ZM262.4091 488.16562Q262.4091 486.63437 262.7216 485.7125Q263.0341 484.775 263.64346 484.275Q264.26846 483.775 265.20596 483.775Q265.89346 483.775 266.4091 484.05624Q266.94034 484.3375 267.2841 484.86874Q267.62784 485.38437 267.81534 486.13437Q268.00284 486.88437 268.00284 488.16562Q268.00284 489.68124 267.69034 490.60312Q267.39346 491.525 266.76846 492.04062Q266.1591 492.54062 265.20596 492.54062Q263.9716 492.54062 263.25284 491.65Q262.4091 490.5875 262.4091 488.16562ZM263.4872 488.16562Q263.4872 490.275 263.9872 490.97812Q264.4872 491.68124 265.20596 491.68124Q265.94034 491.68124 266.4247 490.97812Q266.9247 490.275 266.9247 488.16562Q266.9247 486.04062 266.4247 485.35312Q265.94034 484.65 265.19034 484.65Q264.4716 484.65 264.0341 485.25937Q263.4872 486.04062 263.4872 488.16562Z" fill-rule="nonzero"/><path fill="#000000" d="M311.77274 490.13437L312.83524 489.99374Q313.0071 490.88437 313.4446 491.29062Q313.8821 491.68124 314.5071 491.68124Q315.2571 491.68124 315.77274 491.16562Q316.28836 490.65 316.28836 489.88437Q316.28836 489.16562 315.804 488.69687Q315.33524 488.2125 314.60086 488.2125Q314.304 488.2125 313.85086 488.3375L313.97586 487.4Q314.08524 487.41562 314.14774 487.41562Q314.8196 487.41562 315.35086 487.07187Q315.89774 486.7125 315.89774 485.97812Q315.89774 485.4 315.5071 485.025Q315.1165 484.63437 314.4915 484.63437Q313.8821 484.63437 313.46024 485.025Q313.054 485.41562 312.9446 486.18124L311.8821 485.99374Q312.0696 484.94687 312.7571 484.36874Q313.4446 483.775 314.46024 483.775Q315.16336 483.775 315.7571 484.0875Q316.35086 484.38437 316.66336 484.9Q316.97586 485.41562 316.97586 486.00937Q316.97586 486.55624 316.679 487.025Q316.3821 487.47812 315.804 487.74374Q316.554 487.91562 316.97586 488.47812Q317.39774 489.025 317.39774 489.86874Q317.39774 490.99374 316.5696 491.775Q315.7571 492.55624 314.5071 492.55624Q313.3821 492.55624 312.6321 491.88437Q311.8821 491.19687 311.77274 490.13437ZM318.77274 490.13437L319.83524 489.99374Q320.0071 490.88437 320.4446 491.29062Q320.8821 491.68124 321.5071 491.68124Q322.2571 491.68124 322.77274 491.16562Q323.28836 490.65 323.28836 489.88437Q323.28836 489.16562 322.804 488.69687Q322.33524 488.2125 321.60086 488.2125Q321.304 488.2125 320.85086 488.3375L320.97586 487.4Q321.08524 487.41562 321.14774 487.41562Q321.8196 487.41562 322.35086 487.07187Q322.89774 486.7125 322.89774 485.97812Q322.89774 485.4 322.5071 485.025Q322.1165 484.63437 321.4915 484.63437Q320.8821 484.63437 320.46024 485.025Q320.054 485.41562 319.9446 486.18124L318.8821 485.99374Q319.0696 484.94687 319.7571 484.36874Q320.4446 483.775 321.46024 483.775Q322.16336 483.775 322.7571 484.0875Q323.35086 484.38437 323.66336 484.9Q323.97586 485.41562 323.97586 486.00937Q323.97586 486.55624 323.679 487.025Q323.3821 487.47812 322.804 487.74374Q323.554 487.91562 323.97586 488.47812Q324.39774 489.025 324.39774 489.86874Q324.39774 490.99374 323.5696 491.775Q322.7571 492.55624 321.5071 492.55624Q320.3821 492.55624 319.6321 491.88437Q318.8821 491.19687 318.77274 490.13437ZM329.7415 492.4L328.6946 492.4L328.6946 485.68124Q328.304 486.04062 327.679 486.41562Q327.0696 486.775 326.58524 486.94687L326.58524 485.93124Q327.46024 485.50937 328.1165 484.93124Q328.78836 484.3375 329.0696 483.775L329.7415 483.775L329.7415 492.4ZM332.77274 488.16562Q332.77274 486.63437 333.08524 485.7125Q333.39774 484.775 334.0071 484.275Q334.6321 483.775 335.5696 483.775Q336.2571 483.775 336.77274 484.05624Q337.304 484.3375 337.64774 484.86874Q337.9915 485.38437 338.179 486.13437Q338.3665 486.88437 338.3665 488.16562Q338.3665 489.68124 338.054 490.60312Q337.7571 491.525 337.1321 492.04062Q336.52274 492.54062 335.5696 492.54062Q334.33524 492.54062 333.6165 491.65Q332.77274 490.5875 332.77274 488.16562ZM333.85086 488.16562Q333.85086 490.275 334.35086 490.97812Q334.85086 491.68124 335.5696 491.68124Q336.304 491.68124 336.78836 490.97812Q337.28836 490.275 337.28836 488.16562Q337.28836 486.04062 336.78836 485.35312Q336.304 484.65 335.554 484.65Q334.83524 484.65 334.39774 485.25937Q333.85086 486.04062 333.85086 488.16562ZM339.83524 484.93124L339.83524 483.91562L345.39774 483.91562L345.39774 484.74374Q344.58524 485.61874 343.77274 487.07187Q342.97586 488.50937 342.53836 490.04062Q342.21024 491.11874 342.1321 492.4L341.03836 492.4Q341.054 491.38437 341.429 489.94687Q341.8196 488.50937 342.52274 487.18124Q343.2415 485.85312 344.054 484.93124L339.83524 484.93124ZM346.77274 488.16562Q346.77274 486.63437 347.08524 485.7125Q347.39774 484.775 348.0071 484.275Q348.6321 483.775 349.5696 483.775Q350.2571 483.775 350.77274 484.05624Q351.304 484.3375 351.64774 484.86874Q351.9915 485.38437 352.179 486.13437Q352.3665 486.88437 352.3665 488.16562Q352.3665 489.68124 352.054 490.60312Q351.7571 491.525 351.1321 492.04062Q350.52274 492.54062 349.5696 492.54062Q348.33524 492.54062 347.6165 491.65Q346.77274 490.5875 346.77274 488.16562ZM347.85086 488.16562Q347.85086 490.275 348.35086 490.97812Q348.85086 491.68124 349.5696 491.68124Q350.304 491.68124 350.78836 490.97812Q351.28836 490.275 351.28836 488.16562Q351.28836 486.04062 350.78836 485.35312Q350.304 484.65 349.554 484.65Q348.83524 484.65 348.39774 485.25937Q347.85086 486.04062 347.85086 488.16562Z" fill-rule="nonzero"/><path fill="#000000" d="M399.51135 492.4L399.51135 490.3375L395.7926 490.3375L395.7926 489.36874L399.71448 483.80624L400.57385 483.80624L400.57385 489.36874L401.7301 489.36874L401.7301 490.3375L400.57385 490.3375L400.57385 492.4L399.51135 492.4ZM399.51135 489.36874L399.51135 485.50937L396.82385 489.36874L399.51135 489.36874ZM403.13635 490.13437L404.19885 489.99374Q404.37073 490.88437 404.80823 491.29062Q405.24573 491.68124 405.87073 491.68124Q406.62073 491.68124 407.13635 491.16562Q407.65198 490.65 407.65198 489.88437Q407.65198 489.16562 407.1676 488.69687Q406.69885 488.2125 405.96448 488.2125Q405.6676 488.2125 405.21448 488.3375L405.33948 487.4Q405.44885 487.41562 405.51135 487.41562Q406.18323 487.41562 406.71448 487.07187Q407.26135 486.7125 407.26135 485.97812Q407.26135 485.4 406.87073 485.025Q406.4801 484.63437 405.8551 484.63437Q405.24573 484.63437 404.82385 485.025Q404.4176 485.41562 404.30823 486.18124L403.24573 485.99374Q403.43323 484.94687 404.12073 484.36874Q404.80823 483.775 405.82385 483.775Q406.52698 483.775 407.12073 484.0875Q407.71448 484.38437 408.02698 484.9Q408.33948 485.41562 408.33948 486.00937Q408.33948 486.55624 408.0426 487.025Q407.74573 487.47812 407.1676 487.74374Q407.9176 487.91562 408.33948 488.47812Q408.76135 489.025 408.76135 489.86874Q408.76135 490.99374 407.93323 491.775Q407.12073 492.55624 405.87073 492.55624Q404.74573 492.55624 403.99573 491.88437Q403.24573 491.19687 403.13635 490.13437ZM414.1051 492.4L413.05823 492.4L413.05823 485.68124Q412.6676 486.04062 412.0426 486.41562Q411.43323 486.775 410.94885 486.94687L410.94885 485.93124Q411.82385 485.50937 412.4801 484.93124Q413.15198 484.3375 413.43323 483.775L414.1051 483.775L414.1051 492.4ZM417.13635 488.16562Q417.13635 486.63437 417.44885 485.7125Q417.76135 484.775 418.37073 484.275Q418.99573 483.775 419.93323 483.775Q420.62073 483.775 421.13635 484.05624Q421.6676 484.3375 422.01135 484.86874Q422.3551 485.38437 422.5426 486.13437Q422.7301 486.88437 422.7301 488.16562Q422.7301 489.68124 422.4176 490.60312Q422.12073 491.525 421.49573 492.04062Q420.88635 492.54062 419.93323 492.54062Q418.69885 492.54062 417.9801 491.65Q417.13635 490.5875 417.13635 488.16562ZM418.21448 488.16562Q418.21448 490.275 418.71448 490.97812Q419.21448 491.68124 419.93323 491.68124Q420.6676 491.68124 421.15198 490.97812Q421.65198 490.275 421.65198 488.16562Q421.65198 486.04062 421.15198 485.35312Q420.6676 484.65 419.9176 484.65Q419.19885 484.65 418.76135 485.25937Q418.21448 486.04062 418.21448 488.16562ZM424.19885 484.93124L424.19885 483.91562L429.76135 483.91562L429.76135 484.74374Q428.94885 485.61874 428.13635 487.07187Q427.33948 488.50937 426.90198 490.04062Q426.57385 491.11874 426.49573 492.4L425.40198 492.4Q425.4176 491.38437 425.7926 489.94687Q426.18323 488.50937 426.88635 487.18124Q427.6051 485.85312 428.4176 484.93124L424.19885 484.93124ZM431.13635 488.16562Q431.13635 486.63437 431.44885 485.7125Q431.76135 484.775 432.37073 484.275Q432.99573 483.775 433.93323 483.775Q434.62073 483.775 435.13635 484.05624Q435.6676 484.3375 436.01135 484.86874Q436.3551 485.38437 436.5426 486.13437Q436.7301 486.88437 436.7301 488.16562Q436.7301 489.68124 436.4176 490.60312Q436.12073 491.525 435.49573 492.04062Q434.88635 492.54062 433.93323 492.54062Q432.69885 492.54062 431.9801 491.65Q431.13635 490.5875 431.13635 488.16562ZM432.21448 488.16562Q432.21448 490.275 432.71448 490.97812Q433.21448 491.68124 433.93323 491.68124Q434.6676 491.68124 435.15198 490.97812Q435.65198 490.275 435.65198 488.16562Q435.65198 486.04062 435.15198 485.35312Q434.6676 484.65 433.9176 484.65Q433.19885 484.65 432.76135 485.25937Q432.21448 486.04062 432.21448 488.16562Z" fill-rule="nonzero"/><path fill="#000000" d="M480.5 490.15L481.60938 490.05624Q481.73438 490.86874 482.17188 491.275Q482.625 491.68124 483.26562 491.68124Q484.01562 491.68124 484.54688 491.10312Q485.07812 490.525 485.07812 489.5875Q485.07812 488.68124 484.5625 488.16562Q484.0625 487.63437 483.23438 487.63437Q482.73438 487.63437 482.3125 487.86874Q481.90625 488.10312 481.67188 488.4625L480.6875 488.3375L481.51562 483.93124L485.79688 483.93124L485.79688 484.93124L482.35938 484.93124L481.90625 487.24374Q482.67188 486.69687 483.51562 486.69687Q484.64062 486.69687 485.40625 487.47812Q486.1875 488.25937 486.1875 489.49374Q486.1875 490.65 485.51562 491.50937Q484.6875 492.54062 483.26562 492.54062Q482.09375 492.54062 481.34375 491.88437Q480.60938 491.22812 480.5 490.15ZM487.5 490.13437L488.5625 489.99374Q488.73438 490.88437 489.17188 491.29062Q489.60938 491.68124 490.23438 491.68124Q490.98438 491.68124 491.5 491.16562Q492.01562 490.65 492.01562 489.88437Q492.01562 489.16562 491.53125 488.69687Q491.0625 488.2125 490.32812 488.2125Q490.03125 488.2125 489.57812 488.3375L489.70312 487.4Q489.8125 487.41562 489.875 487.41562Q490.54688 487.41562 491.07812 487.07187Q491.625 486.7125 491.625 485.97812Q491.625 485.4 491.23438 485.025Q490.84375 484.63437 490.21875 484.63437Q489.60938 484.63437 489.1875 485.025Q488.78125 485.41562 488.67188 486.18124L487.60938 485.99374Q487.79688 484.94687 488.48438 484.36874Q489.17188 483.775 490.1875 483.775Q490.89062 483.775 491.48438 484.0875Q492.07812 484.38437 492.39062 484.9Q492.70312 485.41562 492.70312 486.00937Q492.70312 486.55624 492.40625 487.025Q492.10938 487.47812 491.53125 487.74374Q492.28125 487.91562 492.70312 488.47812Q493.125 489.025 493.125 489.86874Q493.125 490.99374 492.29688 491.775Q491.48438 492.55624 490.23438 492.55624Q489.10938 492.55624 488.35938 491.88437Q487.60938 491.19687 487.5 490.13437ZM498.46875 492.4L497.42188 492.4L497.42188 485.68124Q497.03125 486.04062 496.40625 486.41562Q495.79688 486.775 495.3125 486.94687L495.3125 485.93124Q496.1875 485.50937 496.84375 484.93124Q497.51562 484.3375 497.79688 483.775L498.46875 483.775L498.46875 492.4ZM501.5 488.16562Q501.5 486.63437 501.8125 485.7125Q502.125 484.775 502.73438 484.275Q503.35938 483.775 504.29688 483.775Q504.98438 483.775 505.5 484.05624Q506.03125 484.3375 506.375 484.86874Q506.71875 485.38437 506.90625 486.13437Q507.09375 486.88437 507.09375 488.16562Q507.09375 489.68124 506.78125 490.60312Q506.48438 491.525 505.85938 492.04062Q505.25 492.54062 504.29688 492.54062Q503.0625 492.54062 502.34375 491.65Q501.5 490.5875 501.5 488.16562ZM502.57812 488.16562Q502.57812 490.275 503.07812 490.97812Q503.57812 491.68124 504.29688 491.68124Q505.03125 491.68124 505.51562 490.97812Q506.01562 490.275 506.01562 488.16562Q506.01562 486.04062 505.51562 485.35312Q505.03125 484.65 504.28125 484.65Q503.5625 484.65 503.125 485.25937Q502.57812 486.04062 502.57812 488.16562ZM508.5625 484.93124L508.5625 483.91562L514.125 483.91562L514.125 484.74374Q513.3125 485.61874 512.5 487.07187Q511.70312 488.50937 511.26562 490.04062Q510.9375 491.11874 510.85938 492.4L509.76562 492.4Q509.78125 491.38437 510.15625 489.94687Q510.54688 488.50937 511.25 487.18124Q511.96875 485.85312 512.78125 484.93124L508.5625 484.93124ZM515.5 488.16562Q515.5 486.63437 515.8125 485.7125Q516.125 484.775 516.7344 484.275Q517.3594 483.775 518.2969 483.775Q518.9844 483.775 519.5 484.05624Q520.03125 484.3375 520.375 484.86874Q520.71875 485.38437 520.90625 486.13437Q521.09375 486.88437 521.09375 488.16562Q521.09375 489.68124 520.78125 490.60312Q520.4844 491.525 519.8594 492.04062Q519.25 492.54062 518.2969 492.54062Q517.0625 492.54062 516.34375 491.65Q515.5 490.5875 515.5 488.16562ZM516.5781 488.16562Q516.5781 490.275 517.0781 490.97812Q517.5781 491.68124 518.2969 491.68124Q519.03125 491.68124 519.5156 490.97812Q520.0156 490.275 520.0156 488.16562Q520.0156 486.04062 519.5156 485.35312Q519.03125 484.65 518.28125 484.65Q517.5625 484.65 517.125 485.25937Q516.5781 486.04062 516.5781 488.16562Z" fill-rule="nonzero"/><path fill="#000000" d="M570.3324 485.91562L569.2855 485.99374Q569.1449 485.36874 568.8949 485.0875Q568.4574 484.63437 567.8324 484.63437Q567.3324 484.63437 566.9418 484.91562Q566.4574 485.29062 566.1605 485.99374Q565.8793 486.68124 565.86365 487.9625Q566.23865 487.38437 566.7855 487.10312Q567.348 486.82187 567.9574 486.82187Q569.0043 486.82187 569.73865 487.60312Q570.48865 488.38437 570.48865 489.60312Q570.48865 490.41562 570.1293 491.11874Q569.7855 491.80624 569.17615 492.18124Q568.5668 492.54062 567.80115 492.54062Q566.473 492.54062 565.6449 491.57187Q564.8168 490.60312 564.8168 488.38437Q564.8168 485.88437 565.73865 484.75937Q566.5355 483.775 567.8949 483.775Q568.9105 483.775 569.55115 484.35312Q570.2074 484.91562 570.3324 485.91562ZM566.0355 489.61874Q566.0355 490.16562 566.2543 490.66562Q566.48865 491.15 566.8949 491.41562Q567.3168 491.68124 567.7855 491.68124Q568.4418 491.68124 568.92615 491.15Q569.4105 490.60312 569.4105 489.68124Q569.4105 488.79062 568.92615 488.275Q568.4574 487.75937 567.73865 487.75937Q567.0199 487.75937 566.5199 488.275Q566.0355 488.79062 566.0355 489.61874ZM571.86365 490.13437L572.92615 489.99374Q573.098 490.88437 573.5355 491.29062Q573.973 491.68124 574.598 491.68124Q575.348 491.68124 575.86365 491.16562Q576.3793 490.65 576.3793 489.88437Q576.3793 489.16562 575.8949 488.69687Q575.42615 488.2125 574.6918 488.2125Q574.3949 488.2125 573.9418 488.3375L574.0668 487.4Q574.17615 487.41562 574.23865 487.41562Q574.9105 487.41562 575.4418 487.07187Q575.98865 486.7125 575.98865 485.97812Q575.98865 485.4 575.598 485.025Q575.2074 484.63437 574.5824 484.63437Q573.973 484.63437 573.55115 485.025Q573.1449 485.41562 573.0355 486.18124L571.973 485.99374Q572.1605 484.94687 572.848 484.36874Q573.5355 483.775 574.55115 483.775Q575.2543 483.775 575.848 484.0875Q576.4418 484.38437 576.7543 484.9Q577.0668 485.41562 577.0668 486.00937Q577.0668 486.55624 576.7699 487.025Q576.473 487.47812 575.8949 487.74374Q576.6449 487.91562 577.0668 488.47812Q577.48865 489.025 577.48865 489.86874Q577.48865 490.99374 576.6605 491.775Q575.848 492.55624 574.598 492.55624Q573.473 492.55624 572.723 491.88437Q571.973 491.19687 571.86365 490.13437ZM582.8324 492.4L581.7855 492.4L581.7855 485.68124Q581.3949 486.04062 580.7699 486.41562Q580.1605 486.775 579.67615 486.94687L579.67615 485.93124Q580.55115 485.50937 581.2074 484.93124Q581.8793 484.3375 582.1605 483.775L582.8324 483.775L582.8324 492.4ZM585.86365 488.16562Q585.86365 486.63437 586.17615 485.7125Q586.48865 484.775 587.098 484.275Q587.723 483.775 588.6605 483.775Q589.348 483.775 589.86365 484.05624Q590.3949 484.3375 590.73865 484.86874Q591.0824 485.38437 591.2699 486.13437Q591.4574 486.88437 591.4574 488.16562Q591.4574 489.68124 591.1449 490.60312Q590.848 491.525 590.223 492.04062Q589.61365 492.54062 588.6605 492.54062Q587.42615 492.54062 586.7074 491.65Q585.86365 490.5875 585.86365 488.16562ZM586.9418 488.16562Q586.9418 490.275 587.4418 490.97812Q587.9418 491.68124 588.6605 491.68124Q589.3949 491.68124 589.8793 490.97812Q590.3793 490.275 590.3793 488.16562Q590.3793 486.04062 589.8793 485.35312Q589.3949 484.65 588.6449 484.65Q587.92615 484.65 587.48865 485.25937Q586.9418 486.04062 586.9418 488.16562ZM592.92615 484.93124L592.92615 483.91562L598.48865 483.91562L598.48865 484.74374Q597.67615 485.61874 596.86365 487.07187Q596.0668 488.50937 595.6293 490.04062Q595.30115 491.11874 595.223 492.4L594.1293 492.4Q594.1449 491.38437 594.5199 489.94687Q594.9105 488.50937 595.61365 487.18124Q596.3324 485.85312 597.1449 484.93124L592.92615 484.93124ZM599.86365 488.16562Q599.86365 486.63437 600.17615 485.7125Q600.48865 484.775 601.098 484.275Q601.723 483.775 602.6605 483.775Q603.348 483.775 603.86365 484.05624Q604.3949 484.3375 604.73865 484.86874Q605.0824 485.38437 605.2699 486.13437Q605.4574 486.88437 605.4574 488.16562Q605.4574 489.68124 605.1449 490.60312Q604.848 491.525 604.223 492.04062Q603.61365 492.54062 602.6605 492.54062Q601.42615 492.54062 600.7074 491.65Q599.86365 490.5875 599.86365 488.16562ZM600.9418 488.16562Q600.9418 490.275 601.4418 490.97812Q601.9418 491.68124 602.6605 491.68124Q603.3949 491.68124 603.8793 490.97812Q604.3793 490.275 604.3793 488.16562Q604.3793 486.04062 603.8793 485.35312Q603.3949 484.65 602.6449 484.65Q601.92615 484.65 601.48865 485.25937Q600.9418 486.04062 600.9418 488.16562Z" fill-rule="nonzero"/><path fill="#000000" d="M649.2898 484.93124L649.2898 483.91562L654.8523 483.91562L654.8523 484.74374Q654.0398 485.61874 653.2273 487.07187Q652.4304 488.50937 651.9929 490.04062Q651.6648 491.11874 651.5867 492.4L650.4929 492.4Q650.50854 491.38437 650.88354 489.94687Q651.2742 488.50937 651.9773 487.18124Q652.69604 485.85312 653.50854 484.93124L649.2898 484.93124ZM656.2273 490.13437L657.2898 489.99374Q657.4617 490.88437 657.8992 491.29062Q658.3367 491.68124 658.9617 491.68124Q659.7117 491.68124 660.2273 491.16562Q660.7429 490.65 660.7429 489.88437Q660.7429 489.16562 660.25854 488.69687Q659.7898 488.2125 659.0554 488.2125Q658.75854 488.2125 658.3054 488.3375L658.4304 487.4Q658.5398 487.41562 658.6023 487.41562Q659.2742 487.41562 659.8054 487.07187Q660.3523 486.7125 660.3523 485.97812Q660.3523 485.4 659.9617 485.025Q659.57104 484.63437 658.94604 484.63437Q658.3367 484.63437 657.9148 485.025Q657.50854 485.41562 657.3992 486.18124L656.3367 485.99374Q656.5242 484.94687 657.2117 484.36874Q657.8992 483.775 658.9148 483.775Q659.6179 483.775 660.2117 484.0875Q660.8054 484.38437 661.1179 484.9Q661.4304 485.41562 661.4304 486.00937Q661.4304 486.55624 661.13354 487.025Q660.8367 487.47812 660.25854 487.74374Q661.00854 487.91562 661.4304 488.47812Q661.8523 489.025 661.8523 489.86874Q661.8523 490.99374 661.0242 491.775Q660.2117 492.55624 658.9617 492.55624Q657.8367 492.55624 657.0867 491.88437Q656.3367 491.19687 656.2273 490.13437ZM667.19604 492.4L666.1492 492.4L666.1492 485.68124Q665.75854 486.04062 665.13354 486.41562Q664.5242 486.775 664.0398 486.94687L664.0398 485.93124Q664.9148 485.50937 665.57104 484.93124Q666.2429 484.3375 666.5242 483.775L667.19604 483.775L667.19604 492.4ZM670.2273 488.16562Q670.2273 486.63437 670.5398 485.7125Q670.8523 484.775 671.4617 484.275Q672.0867 483.775 673.0242 483.775Q673.7117 483.775 674.2273 484.05624Q674.75854 484.3375 675.1023 484.86874Q675.44604 485.38437 675.63354 486.13437Q675.82104 486.88437 675.82104 488.16562Q675.82104 489.68124 675.50854 490.60312Q675.2117 491.525 674.5867 492.04062Q673.9773 492.54062 673.0242 492.54062Q671.7898 492.54062 671.07104 491.65Q670.2273 490.5875 670.2273 488.16562ZM671.3054 488.16562Q671.3054 490.275 671.8054 490.97812Q672.3054 491.68124 673.0242 491.68124Q673.75854 491.68124 674.2429 490.97812Q674.7429 490.275 674.7429 488.16562Q674.7429 486.04062 674.2429 485.35312Q673.75854 484.65 673.00854 484.65Q672.2898 484.65 671.8523 485.25937Q671.3054 486.04062 671.3054 488.16562ZM677.2898 484.93124L677.2898 483.91562L682.8523 483.91562L682.8523 484.74374Q682.0398 485.61874 681.2273 487.07187Q680.4304 488.50937 679.9929 490.04062Q679.6648 491.11874 679.5867 492.4L678.4929 492.4Q678.50854 491.38437 678.88354 489.94687Q679.2742 488.50937 679.9773 487.18124Q680.69604 485.85312 681.50854 484.93124L677.2898 484.93124ZM684.2273 488.16562Q684.2273 486.63437 684.5398 485.7125Q684.8523 484.775 685.4617 484.275Q686.0867 483.775 687.0242 483.775Q687.7117 483.775 688.2273 484.05624Q688.75854 484.3375 689.1023 484.86874Q689.44604 485.38437 689.63354 486.13437Q689.82104 486.88437 689.82104 488.16562Q689.82104 489.68124 689.50854 490.60312Q689.2117 491.525 688.5867 492.04062Q687.9773 492.54062 687.0242 492.54062Q685.7898 492.54062 685.07104 491.65Q684.2273 490.5875 684.2273 488.16562ZM685.3054 488.16562Q685.3054 490.275 685.8054 490.97812Q686.3054 491.68124 687.0242 491.68124Q687.75854 491.68124 688.2429 490.97812Q688.7429 490.275 688.7429 488.16562Q688.7429 486.04062 688.2429 485.35312Q687.75854 484.65 687.00854 484.65Q686.2898 484.65 685.8523 485.25937Q685.3054 486.04062 685.3054 488.16562Z" fill-rule="nonzero"/><path fill="#000000" d="M733.74713 490.41562L734.76276 490.32187Q734.88776 491.04062 735.24713 491.36874Q735.62213 491.68124 736.18463 491.68124Q736.669 491.68124 737.0284 491.4625Q737.4034 491.22812 737.63776 490.86874Q737.87213 490.49374 738.0284 489.86874Q738.18463 489.22812 738.18463 488.57187Q738.18463 488.49374 738.18463 488.35312Q737.87213 488.85312 737.32526 489.18124Q736.7784 489.49374 736.13776 489.49374Q735.05963 489.49374 734.32526 488.72812Q733.5909 487.94687 733.5909 486.68124Q733.5909 485.36874 734.3565 484.57187Q735.13776 483.775 736.294 483.775Q737.12213 483.775 737.80963 484.22812Q738.51276 484.68124 738.87213 485.525Q739.2315 486.35312 739.2315 487.93124Q739.2315 489.57187 738.87213 490.55624Q738.5284 491.525 737.80963 492.04062Q737.1065 492.54062 736.169 492.54062Q735.1534 492.54062 734.51276 491.99374Q733.87213 491.43124 733.74713 490.41562ZM738.05963 486.61874Q738.05963 485.7125 737.57526 485.18124Q737.1065 484.65 736.419 484.65Q735.7159 484.65 735.18463 485.22812Q734.669 485.79062 734.669 486.7125Q734.669 487.525 735.169 488.04062Q735.669 488.55624 736.38776 488.55624Q737.12213 488.55624 737.5909 488.04062Q738.05963 487.525 738.05963 486.61874ZM740.5909 490.13437L741.6534 489.99374Q741.82526 490.88437 742.26276 491.29062Q742.70026 491.68124 743.32526 491.68124Q744.07526 491.68124 744.5909 491.16562Q745.1065 490.65 745.1065 489.88437Q745.1065 489.16562 744.62213 488.69687Q744.1534 488.2125 743.419 488.2125Q743.12213 488.2125 742.669 488.3375L742.794 487.4Q742.9034 487.41562 742.9659 487.41562Q743.63776 487.41562 744.169 487.07187Q744.7159 486.7125 744.7159 485.97812Q744.7159 485.4 744.32526 485.025Q743.93463 484.63437 743.30963 484.63437Q742.70026 484.63437 742.2784 485.025Q741.87213 485.41562 741.76276 486.18124L740.70026 485.99374Q740.88776 484.94687 741.57526 484.36874Q742.26276 483.775 743.2784 483.775Q743.9815 483.775 744.57526 484.0875Q745.169 484.38437 745.4815 484.9Q745.794 485.41562 745.794 486.00937Q745.794 486.55624 745.49713 487.025Q745.20026 487.47812 744.62213 487.74374Q745.37213 487.91562 745.794 488.47812Q746.2159 489.025 746.2159 489.86874Q746.2159 490.99374 745.38776 491.775Q744.57526 492.55624 743.32526 492.55624Q742.20026 492.55624 741.45026 491.88437Q740.70026 491.19687 740.5909 490.13437ZM751.55963 492.4L750.51276 492.4L750.51276 485.68124Q750.12213 486.04062 749.49713 486.41562Q748.88776 486.775 748.4034 486.94687L748.4034 485.93124Q749.2784 485.50937 749.93463 484.93124Q750.6065 484.3375 750.88776 483.775L751.55963 483.775L751.55963 492.4ZM754.5909 488.16562Q754.5909 486.63437 754.9034 485.7125Q755.2159 484.775 755.82526 484.275Q756.45026 483.775 757.38776 483.775Q758.07526 483.775 758.5909 484.05624Q759.12213 484.3375 759.4659 484.86874Q759.80963 485.38437 759.99713 486.13437Q760.18463 486.88437 760.18463 488.16562Q760.18463 489.68124 759.87213 490.60312Q759.57526 491.525 758.95026 492.04062Q758.3409 492.54062 757.38776 492.54062Q756.1534 492.54062 755.43463 491.65Q754.5909 490.5875 754.5909 488.16562ZM755.669 488.16562Q755.669 490.275 756.169 490.97812Q756.669 491.68124 757.38776 491.68124Q758.12213 491.68124 758.6065 490.97812Q759.1065 490.275 759.1065 488.16562Q759.1065 486.04062 758.6065 485.35312Q758.12213 484.65 757.37213 484.65Q756.6534 484.65 756.2159 485.25937Q755.669 486.04062 755.669 488.16562ZM761.6534 484.93124L761.6534 483.91562L767.2159 483.91562L767.2159 484.74374Q766.4034 485.61874 765.5909 487.07187Q764.794 488.50937 764.3565 490.04062Q764.0284 491.11874 763.95026 492.4L762.8565 492.4Q762.87213 491.38437 763.24713 489.94687Q763.63776 488.50937 764.3409 487.18124Q765.05963 485.85312 765.87213 484.93124L761.6534 484.93124ZM768.5909 488.16562Q768.5909 486.63437 768.9034 485.7125Q769.2159 484.775 769.82526 484.275Q770.45026 483.775 771.38776 483.775Q772.07526 483.775 772.5909 484.05624Q773.12213 484.3375 773.4659 484.86874Q773.80963 485.38437 773.99713 486.13437Q774.18463 486.88437 774.18463 488.16562Q774.18463 489.68124 773.87213 490.60312Q773.57526 491.525 772.95026 492.04062Q772.3409 492.54062 771.38776 492.54062Q770.1534 492.54062 769.43463 491.65Q768.5909 490.5875 768.5909 488.16562ZM769.669 488.16562Q769.669 490.275 770.169 490.97812Q770.669 491.68124 771.38776 491.68124Q772.12213 491.68124 772.6065 490.97812Q773.1065 490.275 773.1065 488.16562Q773.1065 486.04062 772.6065 485.35312Q772.12213 484.65 771.37213 484.65Q770.6534 484.65 770.2159 485.25937Q769.669 486.04062 769.669 488.16562Z" fill-rule="nonzero"/><path fill="#000000" d="M818.4233 492.4L817.3764 492.4L817.3764 485.68124Q816.9858 486.04062 816.3608 486.41562Q815.7514 486.775 815.267 486.94687L815.267 485.93124Q816.142 485.50937 816.7983 484.93124Q817.47015 484.3375 817.7514 483.775L818.4233 483.775L818.4233 492.4ZM821.4545 488.16562Q821.4545 486.63437 821.767 485.7125Q822.0795 484.775 822.6889 484.275Q823.3139 483.775 824.2514 483.775Q824.9389 483.775 825.4545 484.05624Q825.9858 484.3375 826.3295 484.86874Q826.6733 485.38437 826.8608 486.13437Q827.0483 486.88437 827.0483 488.16562Q827.0483 489.68124 826.7358 490.60312Q826.4389 491.525 825.8139 492.04062Q825.2045 492.54062 824.2514 492.54062Q823.017 492.54062 822.2983 491.65Q821.4545 490.5875 821.4545 488.16562ZM822.53265 488.16562Q822.53265 490.275 823.03265 490.97812Q823.53265 491.68124 824.2514 491.68124Q824.9858 491.68124 825.47015 490.97812Q825.97015 490.275 825.97015 488.16562Q825.97015 486.04062 825.47015 485.35312Q824.9858 484.65 824.2358 484.65Q823.517 484.65 823.0795 485.25937Q822.53265 486.04062 822.53265 488.16562ZM828.4545 490.13437L829.517 489.99374Q829.6889 490.88437 830.1264 491.29062Q830.5639 491.68124 831.1889 491.68124Q831.9389 491.68124 832.4545 491.16562Q832.97015 490.65 832.97015 489.88437Q832.97015 489.16562 832.4858 488.69687Q832.017 488.2125 831.28265 488.2125Q830.9858 488.2125 830.53265 488.3375L830.65765 487.4Q830.767 487.41562 830.8295 487.41562Q831.5014 487.41562 832.03265 487.07187Q832.5795 486.7125 832.5795 485.97812Q832.5795 485.4 832.1889 485.025Q831.7983 484.63437 831.1733 484.63437Q830.5639 484.63437 830.142 485.025Q829.7358 485.41562 829.6264 486.18124L828.5639 485.99374Q828.7514 484.94687 829.4389 484.36874Q830.1264 483.775 831.142 483.775Q831.84515 483.775 832.4389 484.0875Q833.03265 484.38437 833.34515 484.9Q833.65765 485.41562 833.65765 486.00937Q833.65765 486.55624 833.3608 487.025Q833.0639 487.47812 832.4858 487.74374Q833.2358 487.91562 833.65765 488.47812Q834.0795 489.025 834.0795 489.86874Q834.0795 490.99374 833.2514 491.775Q832.4389 492.55624 831.1889 492.55624Q830.0639 492.55624 829.3139 491.88437Q828.5639 491.19687 828.4545 490.13437ZM839.4233 492.4L838.3764 492.4L838.3764 485.68124Q837.9858 486.04062 837.3608 486.41562Q836.7514 486.775 836.267 486.94687L836.267 485.93124Q837.142 485.50937 837.7983 484.93124Q838.47015 484.3375 838.7514 483.775L839.4233 483.775L839.4233 492.4ZM842.4545 488.16562Q842.4545 486.63437 842.767 485.7125Q843.0795 484.775 843.6889 484.275Q844.3139 483.775 845.2514 483.775Q845.9389 483.775 846.4545 484.05624Q846.9858 484.3375 847.3295 484.86874Q847.6733 485.38437 847.8608 486.13437Q848.0483 486.88437 848.0483 488.16562Q848.0483 489.68124 847.7358 490.60312Q847.4389 491.525 846.8139 492.04062Q846.2045 492.54062 845.2514 492.54062Q844.017 492.54062 843.2983 491.65Q842.4545 490.5875 842.4545 488.16562ZM843.53265 488.16562Q843.53265 490.275 844.03265 490.97812Q844.53265 491.68124 845.2514 491.68124Q845.9858 491.68124 846.47015 490.97812Q846.97015 490.275 846.97015 488.16562Q846.97015 486.04062 846.47015 485.35312Q845.9858 484.65 845.2358 484.65Q844.517 484.65 844.0795 485.25937Q843.53265 486.04062 843.53265 488.16562ZM849.517 484.93124L849.517 483.91562L855.0795 483.91562L855.0795 484.74374Q854.267 485.61874 853.4545 487.07187Q852.65765 488.50937 852.22015 490.04062Q851.892 491.11874 851.8139 492.4L850.72015 492.4Q850.7358 491.38437 851.1108 489.94687Q851.5014 488.50937 852.2045 487.18124Q852.9233 485.85312 853.7358 484.93124L849.517 484.93124ZM856.4545 488.16562Q856.4545 486.63437 856.767 485.7125Q857.0795 484.775 857.6889 484.275Q858.3139 483.775 859.2514 483.775Q859.9389 483.775 860.4545 484.05624Q860.9858 484.3375 861.3295 484.86874Q861.6733 485.38437 861.8608 486.13437Q862.0483 486.88437 862.0483 488.16562Q862.0483 489.68124 861.7358 490.60312Q861.4389 491.525 860.8139 492.04062Q860.2045 492.54062 859.2514 492.54062Q858.017 492.54062 857.2983 491.65Q856.4545 490.5875 856.4545 488.16562ZM857.53265 488.16562Q857.53265 490.275 858.03265 490.97812Q858.53265 491.68124 859.2514 491.68124Q859.9858 491.68124 860.47015 490.97812Q860.97015 490.275 860.97015 488.16562Q860.97015 486.04062 860.47015 485.35312Q859.9858 484.65 859.2358 484.65Q858.517 484.65 858.0795 485.25937Q857.53265 486.04062 857.53265 488.16562Z" fill-rule="nonzero"/><path fill="#fbbc04" d="M276.0 77.166664C276.0 76.61438 276.44772 76.166664 277.0 76.166664L287.0 76.166664C287.55228 76.166664 288.0 76.61438 288.0 77.166664L288.0 87.166664C288.0 87.71895 287.55228 88.166664 287.0 88.166664L277.0 88.166664C276.44772 88.166664 276.0 87.71895 276.0 87.166664Z" fill-rule="nonzero"/><path fill="#1a1a1a" d="M297.39062 88.666664L297.39062 75.77604L301.82812 75.77604Q303.32812 75.77604 304.125 75.96354Q305.23438 76.21354 306.01562 76.885414Q307.03125 77.74479 307.53125 79.08854Q308.04688 80.43229 308.04688 82.15104Q308.04688 83.61979 307.70312 84.760414Q307.35938 85.885414 306.8125 86.635414Q306.28125 87.36979 305.64062 87.80729Q305.01562 88.229164 304.10938 88.447914Q303.20312 88.666664 302.03125 88.666664L297.39062 88.666664ZM299.09375 87.15104L301.84375 87.15104Q303.125 87.15104 303.84375 86.916664Q304.5625 86.666664 305.0 86.24479Q305.60938 85.635414 305.9375 84.61979Q306.28125 83.58854 306.28125 82.11979Q306.28125 80.104164 305.60938 79.02604Q304.95312 77.93229 304.0 77.572914Q303.32812 77.30729 301.79688 77.30729L299.09375 77.30729L299.09375 87.15104ZM316.57812 85.666664L318.21875 85.86979Q317.82812 87.291664 316.78125 88.08854Q315.73438 88.885414 314.10938 88.885414Q312.0625 88.885414 310.85938 87.61979Q309.65625 86.354164 309.65625 84.072914Q309.65625 81.729164 310.85938 80.43229Q312.07812 79.11979 314.01562 79.11979Q315.89062 79.11979 317.07812 80.40104Q318.26562 81.666664 318.26562 83.979164Q318.26562 84.11979 318.25 84.40104L311.29688 84.40104Q311.375 85.947914 312.15625 86.760414Q312.95312 87.572914 314.10938 87.572914Q314.98438 87.572914 315.59375 87.11979Q316.21875 86.666664 316.57812 85.666664ZM311.375 83.104164L316.59375 83.104164Q316.48438 81.93229 316.0 81.33854Q315.23438 80.416664 314.03125 80.416664Q312.95312 80.416664 312.20312 81.15104Q311.46875 81.885414 311.375 83.104164ZM322.78125 88.666664L319.23438 79.33854L320.90625 79.33854L322.90625 84.916664Q323.23438 85.822914 323.5 86.80729Q323.71875 86.05729 324.09375 85.02604L326.15625 79.33854L327.79688 79.33854L324.25 88.666664L322.78125 88.666664ZM329.20312 77.604164L329.20312 75.77604L330.78125 75.77604L330.78125 77.604164L329.20312 77.604164ZM329.20312 88.666664L329.20312 79.33854L330.78125 79.33854L330.78125 88.666664L329.20312 88.666664ZM339.28125 85.24479L340.82812 85.447914Q340.57812 87.05729 339.53125 87.979164Q338.48438 88.885414 336.95312 88.885414Q335.03125 88.885414 333.85938 87.635414Q332.70312 86.36979 332.70312 84.041664Q332.70312 82.52604 333.20312 81.40104Q333.70312 80.260414 334.71875 79.697914Q335.75 79.11979 336.95312 79.11979Q338.48438 79.11979 339.4375 79.90104Q340.40625 80.666664 340.6875 82.072914L339.14062 82.30729Q338.92188 81.36979 338.35938 80.90104Q337.8125 80.416664 337.01562 80.416664Q335.82812 80.416664 335.07812 81.27604Q334.32812 82.135414 334.32812 83.99479Q334.32812 85.86979 335.04688 86.729164Q335.76562 87.572914 336.9375 87.572914Q337.85938 87.572914 338.48438 87.010414Q339.10938 86.43229 339.28125 85.24479ZM348.57812 85.666664L350.21875 85.86979Q349.82812 87.291664 348.78125 88.08854Q347.73438 88.885414 346.10938 88.885414Q344.0625 88.885414 342.85938 87.61979Q341.65625 86.354164 341.65625 84.072914Q341.65625 81.729164 342.85938 80.43229Q344.07812 79.11979 346.01562 79.11979Q347.89062 79.11979 349.07812 80.40104Q350.26562 81.666664 350.26562 83.979164Q350.26562 84.11979 350.25 84.40104L343.29688 84.40104Q343.375 85.947914 344.15625 86.760414Q344.95312 87.572914 346.10938 87.572914Q346.98438 87.572914 347.59375 87.11979Q348.21875 86.666664 348.57812 85.666664ZM343.375 83.104164L348.59375 83.104164Q348.48438 81.93229 348.0 81.33854Q347.23438 80.416664 346.03125 80.416664Q344.95312 80.416664 344.20312 81.15104Q343.46875 81.885414 343.375 83.104164ZM355.67188 88.666664L355.67188 77.30729L351.42188 77.30729L351.42188 75.77604L361.64062 75.77604L361.64062 77.30729L357.375 77.30729L357.375 88.666664L355.67188 88.666664ZM363.59375 83.99479Q363.59375 81.40104 365.04688 80.15104Q366.25 79.11979 367.96875 79.11979Q369.90625 79.11979 371.125 80.385414Q372.34375 81.65104 372.34375 83.86979Q372.34375 85.666664 371.79688 86.697914Q371.26562 87.729164 370.23438 88.30729Q369.20312 88.885414 367.96875 88.885414Q366.01562 88.885414 364.79688 87.635414Q363.59375 86.36979 363.59375 83.99479ZM365.21875 83.99479Q365.21875 85.791664 366.0 86.68229Q366.78125 87.572914 367.96875 87.572914Q369.15625 87.572914 369.9375 86.68229Q370.71875 85.77604 370.71875 83.947914Q370.71875 82.21354 369.92188 81.322914Q369.14062 80.43229 367.96875 80.43229Q366.78125 80.43229 366.0 81.322914Q365.21875 82.21354 365.21875 83.99479ZM374.4375 88.666664L374.4375 75.77604L376.14062 75.77604L376.14062 81.072914L382.84375 81.072914L382.84375 75.77604L384.54688 75.77604L384.54688 88.666664L382.84375 88.666664L382.84375 82.58854L376.14062 82.58854L376.14062 88.666664L374.4375 88.666664ZM386.59375 83.99479Q386.59375 81.40104 388.04688 80.15104Q389.25 79.11979 390.96875 79.11979Q392.90625 79.11979 394.125 80.385414Q395.34375 81.65104 395.34375 83.86979Q395.34375 85.666664 394.79688 86.697914Q394.26562 87.729164 393.23438 88.30729Q392.20312 88.885414 390.96875 88.885414Q389.01562 88.885414 387.79688 87.635414Q386.59375 86.36979 386.59375 83.99479ZM388.21875 83.99479Q388.21875 85.791664 389.0 86.68229Q389.78125 87.572914 390.96875 87.572914Q392.15625 87.572914 392.9375 86.68229Q393.71875 85.77604 393.71875 83.947914Q393.71875 82.21354 392.92188 81.322914Q392.14062 80.43229 390.96875 80.43229Q389.78125 80.43229 389.0 81.322914Q388.21875 82.21354 388.21875 83.99479ZM396.54688 85.885414L398.125 85.635414Q398.25 86.572914 398.84375 87.072914Q399.45312 87.572914 400.53125 87.572914Q401.625 87.572914 402.15625 87.135414Q402.6875 86.68229 402.6875 86.08854Q402.6875 85.55729 402.21875 85.24479Q401.89062 85.041664 400.59375 84.71354Q398.85938 84.27604 398.1875 83.96354Q397.51562 83.635414 397.15625 83.072914Q396.8125 82.49479 396.8125 81.80729Q396.8125 81.18229 397.09375 80.65104Q397.39062 80.11979 397.875 79.77604Q398.25 79.49479 398.89062 79.30729Q399.53125 79.11979 400.25 79.11979Q401.35938 79.11979 402.1875 79.447914Q403.01562 79.760414 403.40625 80.30729Q403.8125 80.83854 403.95312 81.74479L402.40625 81.947914Q402.29688 81.229164 401.79688 80.822914Q401.29688 80.416664 400.375 80.416664Q399.28125 80.416664 398.8125 80.77604Q398.34375 81.135414 398.34375 81.61979Q398.34375 81.93229 398.54688 82.18229Q398.73438 82.43229 399.14062 82.604164Q399.39062 82.68229 400.54688 83.010414Q402.21875 83.447914 402.875 83.74479Q403.54688 84.02604 403.92188 84.572914Q404.3125 85.11979 404.3125 85.916664Q404.3125 86.71354 403.84375 87.416664Q403.39062 88.11979 402.51562 88.510414Q401.64062 88.885414 400.54688 88.885414Q398.71875 88.885414 397.76562 88.135414Q396.8125 87.36979 396.54688 85.885414ZM409.64062 87.24479L409.875 88.65104Q409.20312 88.791664 408.67188 88.791664Q407.8125 88.791664 407.32812 88.52604Q406.85938 88.24479 406.67188 87.80729Q406.48438 87.354164 406.48438 85.93229L406.48438 80.55729L405.3125 80.55729L405.3125 79.33854L406.48438 79.33854L406.48438 77.02604L408.04688 76.072914L408.04688 79.33854L409.64062 79.33854L409.64062 80.55729L408.04688 80.55729L408.04688 86.02604Q408.04688 86.697914 408.125 86.90104Q408.21875 87.08854 408.40625 87.197914Q408.59375 87.30729 408.95312 87.30729Q409.20312 87.30729 409.64062 87.24479Z" fill-rule="nonzero"/><path fill="#ea4335" d="M426.0 77.166664C426.0 76.61438 426.44772 76.166664 427.0 76.166664L437.0 76.166664C437.55228 76.166664 438.0 76.61438 438.0 77.166664L438.0 87.166664C438.0 87.71895 437.55228 88.166664 437.0 88.166664L427.0 88.166664C426.44772 88.166664 426.0 87.71895 426.0 87.166664Z" fill-rule="nonzero"/><path fill="#1a1a1a" d="M447.3125 88.666664L447.3125 75.77604L449.03125 75.77604L449.03125 82.166664L455.42188 75.77604L457.73438 75.77604L452.32812 80.99479L457.96875 88.666664L455.71875 88.666664L451.14062 82.15104L449.03125 84.197914L449.03125 88.666664L447.3125 88.666664ZM465.57812 85.666664L467.21875 85.86979Q466.82812 87.291664 465.78125 88.08854Q464.73438 88.885414 463.10938 88.885414Q461.0625 88.885414 459.85938 87.61979Q458.65625 86.354164 458.65625 84.072914Q458.65625 81.729164 459.85938 80.43229Q461.07812 79.11979 463.01562 79.11979Q464.89062 79.11979 466.07812 80.40104Q467.26562 81.666664 467.26562 83.979164Q467.26562 84.11979 467.25 84.40104L460.29688 84.40104Q460.375 85.947914 461.15625 86.760414Q461.95312 87.572914 463.10938 87.572914Q463.98438 87.572914 464.59375 87.11979Q465.21875 86.666664 465.57812 85.666664ZM460.375 83.104164L465.59375 83.104164Q465.48438 81.93229 465.0 81.33854Q464.23438 80.416664 463.03125 80.416664Q461.95312 80.416664 461.20312 81.15104Q460.46875 81.885414 460.375 83.104164ZM469.17188 88.666664L469.17188 79.33854L470.59375 79.33854L470.59375 80.74479Q471.14062 79.760414 471.59375 79.447914Q472.0625 79.11979 472.60938 79.11979Q473.42188 79.11979 474.23438 79.635414L473.70312 81.104164Q473.10938 80.760414 472.53125 80.760414Q472.01562 80.760414 471.59375 81.072914Q471.1875 81.385414 471.01562 81.93229Q470.75 82.77604 470.75 83.77604L470.75 88.666664L469.17188 88.666664ZM475.1875 88.666664L475.1875 79.33854L476.60938 79.33854L476.60938 80.666664Q477.64062 79.11979 479.57812 79.11979Q480.42188 79.11979 481.125 79.43229Q481.84375 79.729164 482.1875 80.229164Q482.54688 80.71354 482.6875 81.385414Q482.76562 81.822914 482.76562 82.93229L482.76562 88.666664L481.1875 88.666664L481.1875 82.99479Q481.1875 82.02604 481.0 81.541664Q480.82812 81.05729 480.34375 80.77604Q479.875 80.49479 479.25 80.49479Q478.23438 80.49479 477.5 81.135414Q476.76562 81.77604 476.76562 83.572914L476.76562 88.666664L475.1875 88.666664ZM491.28125 87.510414Q490.40625 88.260414 489.57812 88.572914Q488.76562 88.885414 487.84375 88.885414Q486.29688 88.885414 485.46875 88.135414Q484.65625 87.36979 484.65625 86.197914Q484.65625 85.52604 484.96875 84.96354Q485.28125 84.385414 485.78125 84.041664Q486.28125 83.697914 486.92188 83.52604Q487.39062 83.40104 488.32812 83.291664Q490.23438 83.05729 491.14062 82.74479Q491.15625 82.416664 491.15625 82.322914Q491.15625 81.36979 490.70312 80.96354Q490.09375 80.43229 488.90625 80.43229Q487.78125 80.43229 487.25 80.822914Q486.71875 81.21354 486.46875 82.21354L484.92188 81.99479Q485.14062 80.99479 485.60938 80.385414Q486.09375 79.77604 487.0 79.447914Q487.92188 79.11979 489.14062 79.11979Q490.32812 79.11979 491.07812 79.40104Q491.82812 79.68229 492.17188 80.11979Q492.53125 80.541664 492.67188 81.18229Q492.75 81.58854 492.75 82.65104L492.75 84.760414Q492.75 86.96354 492.84375 87.55729Q492.95312 88.135414 493.25 88.666664L491.59375 88.666664Q491.34375 88.166664 491.28125 87.510414ZM491.14062 83.979164Q490.28125 84.33854 488.5625 84.572914Q487.59375 84.71354 487.1875 84.90104Q486.78125 85.072914 486.5625 85.416664Q486.34375 85.74479 486.34375 86.166664Q486.34375 86.791664 486.8125 87.21354Q487.29688 87.635414 488.21875 87.635414Q489.14062 87.635414 489.84375 87.24479Q490.5625 86.83854 490.89062 86.15104Q491.14062 85.604164 491.14062 84.55729L491.14062 83.979164ZM495.15625 88.666664L495.15625 75.77604L496.73438 75.77604L496.73438 88.666664L495.15625 88.666664Z" fill-rule="nonzero"/><path fill="#4285f4" d="M514.0 77.166664C514.0 76.61438 514.4477 76.166664 515.0 76.166664L525.0 76.166664C525.5523 76.166664 526.0 76.61438 526.0 77.166664L526.0 87.166664C526.0 87.71895 525.5523 88.166664 525.0 88.166664L515.0 88.166664C514.4477 88.166664 514.0 87.71895 514.0 87.166664Z" fill-rule="nonzero"/><path fill="#1a1a1a" d="M535.4375 88.666664L535.4375 75.77604L537.1406 75.77604L537.1406 81.072914L543.84375 81.072914L543.84375 75.77604L545.5469 75.77604L545.5469 88.666664L543.84375 88.666664L543.84375 82.58854L537.1406 82.58854L537.1406 88.666664L535.4375 88.666664ZM547.59375 83.99479Q547.59375 81.40104 549.0469 80.15104Q550.25 79.11979 551.96875 79.11979Q553.90625 79.11979 555.125 80.385414Q556.34375 81.65104 556.34375 83.86979Q556.34375 85.666664 555.7969 86.697914Q555.2656 87.729164 554.2344 88.30729Q553.2031 88.885414 551.96875 88.885414Q550.0156 88.885414 548.7969 87.635414Q547.59375 86.36979 547.59375 83.99479ZM549.21875 83.99479Q549.21875 85.791664 550.0 86.68229Q550.78125 87.572914 551.96875 87.572914Q553.15625 87.572914 553.9375 86.68229Q554.71875 85.77604 554.71875 83.947914Q554.71875 82.21354 553.9219 81.322914Q553.1406 80.43229 551.96875 80.43229Q550.78125 80.43229 550.0 81.322914Q549.21875 82.21354 549.21875 83.99479ZM557.5469 85.885414L559.125 85.635414Q559.25 86.572914 559.84375 87.072914Q560.4531 87.572914 561.53125 87.572914Q562.625 87.572914 563.15625 87.135414Q563.6875 86.68229 563.6875 86.08854Q563.6875 85.55729 563.21875 85.24479Q562.8906 85.041664 561.59375 84.71354Q559.8594 84.27604 559.1875 83.96354Q558.5156 83.635414 558.15625 83.072914Q557.8125 82.49479 557.8125 81.80729Q557.8125 81.18229 558.09375 80.65104Q558.3906 80.11979 558.875 79.77604Q559.25 79.49479 559.8906 79.30729Q560.53125 79.11979 561.25 79.11979Q562.3594 79.11979 563.1875 79.447914Q564.0156 79.760414 564.40625 80.30729Q564.8125 80.83854 564.9531 81.74479L563.40625 81.947914Q563.2969 81.229164 562.7969 80.822914Q562.2969 80.416664 561.375 80.416664Q560.28125 80.416664 559.8125 80.77604Q559.34375 81.135414 559.34375 81.61979Q559.34375 81.93229 559.5469 82.18229Q559.7344 82.43229 560.1406 82.604164Q560.3906 82.68229 561.5469 83.010414Q563.21875 83.447914 563.875 83.74479Q564.5469 84.02604 564.9219 84.572914Q565.3125 85.11979 565.3125 85.916664Q565.3125 86.71354 564.84375 87.416664Q564.3906 88.11979 563.5156 88.510414Q562.6406 88.885414 561.5469 88.885414Q559.71875 88.885414 558.7656 88.135414Q557.8125 87.36979 557.5469 85.885414ZM570.6406 87.24479L570.875 88.65104Q570.2031 88.791664 569.6719 88.791664Q568.8125 88.791664 568.3281 88.52604Q567.8594 88.24479 567.6719 87.80729Q567.4844 87.354164 567.4844 85.93229L567.4844 80.55729L566.3125 80.55729L566.3125 79.33854L567.4844 79.33854L567.4844 77.02604L569.0469 76.072914L569.0469 79.33854L570.6406 79.33854L570.6406 80.55729L569.0469 80.55729L569.0469 86.02604Q569.0469 86.697914 569.125 86.90104Q569.21875 87.08854 569.40625 87.197914Q569.59375 87.30729 569.9531 87.30729Q570.2031 87.30729 570.6406 87.24479ZM575.6719 88.666664L575.6719 77.30729L571.4219 77.30729L571.4219 75.77604L581.6406 75.77604L581.6406 77.30729L577.375 77.30729L577.375 88.666664L575.6719 88.666664ZM583.59375 83.99479Q583.59375 81.40104 585.0469 80.15104Q586.25 79.11979 587.96875 79.11979Q589.90625 79.11979 591.125 80.385414Q592.34375 81.65104 592.34375 83.86979Q592.34375 85.666664 591.7969 86.697914Q591.2656 87.729164 590.2344 88.30729Q589.2031 88.885414 587.96875 88.885414Q586.0156 88.885414 584.7969 87.635414Q583.59375 86.36979 583.59375 83.99479ZM585.21875 83.99479Q585.21875 85.791664 586.0 86.68229Q586.78125 87.572914 587.96875 87.572914Q589.15625 87.572914 589.9375 86.68229Q590.71875 85.77604 590.71875 83.947914Q590.71875 82.21354 589.9219 81.322914Q589.1406 80.43229 587.96875 80.43229Q586.78125 80.43229 586.0 81.322914Q585.21875 82.21354 585.21875 83.99479ZM594.3906 88.666664L594.3906 75.77604L598.8281 75.77604Q600.3281 75.77604 601.125 75.96354Q602.2344 76.21354 603.0156 76.885414Q604.03125 77.74479 604.53125 79.08854Q605.0469 80.43229 605.0469 82.15104Q605.0469 83.61979 604.7031 84.760414Q604.3594 85.885414 603.8125 86.635414Q603.28125 87.36979 602.6406 87.80729Q602.0156 88.229164 601.1094 88.447914Q600.2031 88.666664 599.03125 88.666664L594.3906 88.666664ZM596.09375 87.15104L598.84375 87.15104Q600.125 87.15104 600.84375 86.916664Q601.5625 86.666664 602.0 86.24479Q602.6094 85.635414 602.9375 84.61979Q603.28125 83.58854 603.28125 82.11979Q603.28125 80.104164 602.6094 79.02604Q601.9531 77.93229 601.0 77.572914Q600.3281 77.30729 598.7969 77.30729L596.09375 77.30729L596.09375 87.15104ZM613.5781 85.666664L615.21875 85.86979Q614.8281 87.291664 613.78125 88.08854Q612.7344 88.885414 611.1094 88.885414Q609.0625 88.885414 607.8594 87.61979Q606.65625 86.354164 606.65625 84.072914Q606.65625 81.729164 607.8594 80.43229Q609.0781 79.11979 611.0156 79.11979Q612.8906 79.11979 614.0781 80.40104Q615.2656 81.666664 615.2656 83.979164Q615.2656 84.11979 615.25 84.40104L608.2969 84.40104Q608.375 85.947914 609.15625 86.760414Q609.9531 87.572914 611.1094 87.572914Q611.9844 87.572914 612.59375 87.11979Q613.21875 86.666664 613.5781 85.666664ZM608.375 83.104164L613.59375 83.104164Q613.4844 81.93229 613.0 81.33854Q612.2344 80.416664 611.03125 80.416664Q609.9531 80.416664 609.2031 81.15104Q608.46875 81.885414 608.375 83.104164ZM619.78125 88.666664L616.2344 79.33854L617.90625 79.33854L619.90625 84.916664Q620.2344 85.822914 620.5 86.80729Q620.71875 86.05729 621.09375 85.02604L623.15625 79.33854L624.7969 79.33854L621.25 88.666664L619.78125 88.666664ZM626.2031 77.604164L626.2031 75.77604L627.78125 75.77604L627.78125 77.604164L626.2031 77.604164ZM626.2031 88.666664L626.2031 79.33854L627.78125 79.33854L627.78125 88.666664L626.2031 88.666664ZM636.28125 85.24479L637.8281 85.447914Q637.5781 87.05729 636.53125 87.979164Q635.4844 88.885414 633.9531 88.885414Q632.03125 88.885414 630.8594 87.635414Q629.7031 86.36979 629.7031 84.041664Q629.7031 82.52604 630.2031 81.40104Q630.7031 80.260414 631.71875 79.697914Q632.75 79.11979 633.9531 79.11979Q635.4844 79.11979 636.4375 79.90104Q637.40625 80.666664 637.6875 82.072914L636.1406 82.30729Q635.9219 81.36979 635.3594 80.90104Q634.8125 80.416664 634.0156 80.416664Q632.8281 80.416664 632.0781 81.27604Q631.3281 82.135414 631.3281 83.99479Q631.3281 85.86979 632.0469 86.729164Q632.7656 87.572914 633.9375 87.572914Q634.8594 87.572914 635.4844 87.010414Q636.1094 86.43229 636.28125 85.24479ZM645.5781 85.666664L647.21875 85.86979Q646.8281 87.291664 645.78125 88.08854Q644.7344 88.885414 643.1094 88.885414Q641.0625 88.885414 639.8594 87.61979Q638.65625 86.354164 638.65625 84.072914Q638.65625 81.729164 639.8594 80.43229Q641.0781 79.11979 643.0156 79.11979Q644.8906 79.11979 646.0781 80.40104Q647.2656 81.666664 647.2656 83.979164Q647.2656 84.11979 647.25 84.40104L640.2969 84.40104Q640.375 85.947914 641.15625 86.760414Q641.9531 87.572914 643.1094 87.572914Q643.9844 87.572914 644.59375 87.11979Q645.21875 86.666664 645.5781 85.666664ZM640.375 83.104164L645.59375 83.104164Q645.4844 81.93229 645.0 81.33854Q644.2344 80.416664 643.03125 80.416664Q641.9531 80.416664 641.2031 81.15104Q640.46875 81.885414 640.375 83.104164Z" fill-rule="nonzero"/><path fill="#757575" d="M34.240623 47.6L28.69375 33.2875L30.740625 33.2875L34.459373 43.678123Q34.9125 44.928123 35.209373 46.021873Q35.5375 44.85 35.990623 43.678123L39.85 33.2875L41.7875 33.2875L36.178123 47.6L34.240623 47.6ZM50.021873 44.25625L51.834373 44.490623Q51.4125 46.06875 50.240623 46.959373Q49.084373 47.834373 47.271873 47.834373Q45.00625 47.834373 43.6625 46.44375Q42.334373 45.0375 42.334373 42.50625Q42.334373 39.88125 43.678123 38.44375Q45.021873 36.990623 47.178123 36.990623Q49.25625 36.990623 50.56875 38.4125Q51.896873 39.81875 51.896873 42.396873Q51.896873 42.553123 51.88125 42.865623L44.146873 42.865623Q44.240623 44.56875 45.115623 45.475Q45.990623 46.38125 47.2875 46.38125Q48.25625 46.38125 48.928123 45.88125Q49.615623 45.365623 50.021873 44.25625ZM44.240623 41.4125L50.0375 41.4125Q49.928123 40.115623 49.38125 39.459373Q48.5375 38.44375 47.19375 38.44375Q45.990623 38.44375 45.1625 39.25625Q44.334373 40.053123 44.240623 41.4125ZM60.69375 43.803123L62.4125 44.021873Q62.13125 45.81875 60.959373 46.834373Q59.803123 47.834373 58.1 47.834373Q55.975 47.834373 54.678123 46.44375Q53.38125 45.053123 53.38125 42.459373Q53.38125 40.771873 53.928123 39.521873Q54.490623 38.25625 55.63125 37.63125Q56.771873 36.990623 58.115623 36.990623Q59.803123 36.990623 60.865623 37.85Q61.94375 38.709373 62.25625 40.271873L60.5375 40.5375Q60.303123 39.490623 59.678123 38.975Q59.053123 38.44375 58.178123 38.44375Q56.85 38.44375 56.021873 39.396873Q55.19375 40.35 55.19375 42.396873Q55.19375 44.490623 55.990623 45.44375Q56.7875 46.38125 58.084373 46.38125Q59.115623 46.38125 59.803123 45.75625Q60.50625 45.115623 60.69375 43.803123ZM67.75625 46.021873L68.00625 47.584373Q67.27187 47.740623 66.67812 47.740623Q65.725 47.740623 65.19375 47.44375Q64.67812 47.13125 64.45937 46.646873Q64.24062 46.146873 64.24062 44.56875L64.24062 38.6L62.959373 38.6L62.959373 37.225L64.24062 37.225L64.24062 34.6625L65.99062 33.6L65.99062 37.225L67.75625 37.225L67.75625 38.6L65.99062 38.6L65.99062 44.6625Q65.99062 45.4125 66.08437 45.63125Q66.17812 45.834373 66.38125 45.975Q66.6 46.1 66.99062 46.1Q67.27187 46.1 67.75625 46.021873ZM69.27187 42.4125Q69.27187 39.5375 70.86562 38.146873Q72.20937 36.990623 74.13125 36.990623Q76.27187 36.990623 77.61562 38.396873Q78.975 39.803123 78.975 42.271873Q78.975 44.271873 78.38125 45.428123Q77.7875 46.56875 76.63125 47.209373Q75.49062 47.834373 74.13125 47.834373Q71.94375 47.834373 70.6 46.44375Q69.27187 45.0375 69.27187 42.4125ZM71.06875 42.4125Q71.06875 44.4125 71.92812 45.396873Q72.80312 46.38125 74.13125 46.38125Q75.44375 46.38125 76.30312 45.396873Q77.17812 44.396873 77.17812 42.35Q77.17812 40.428123 76.30312 39.44375Q75.42812 38.44375 74.13125 38.44375Q72.80312 38.44375 71.92812 39.44375Q71.06875 40.428123 71.06875 42.4125ZM80.89687 47.6L80.89687 37.225L82.475 37.225L82.475 38.803123Q83.08437 37.69375 83.6 37.35Q84.11562 36.990623 84.725 36.990623Q85.61562 36.990623 86.5375 37.553123L85.92812 39.19375Q85.2875 38.803123 84.64687 38.803123Q84.06875 38.803123 83.6 39.1625Q83.14687 39.50625 82.94375 40.115623Q82.6625 41.053123 82.6625 42.1625L82.6625 47.6L80.89687 47.6ZM86.56875 47.6L92.06875 33.2875L94.11562 33.2875L99.975 47.6L97.81875 47.6L96.14687 43.25625L90.1625 43.25625L88.58437 47.6L86.56875 47.6ZM90.70937 41.725L95.55312 41.725L94.06875 37.75625Q93.38125 35.94375 93.05312 34.7875Q92.77187 36.1625 92.27187 37.521873L90.70937 41.725ZM107.64687 47.6L107.64687 46.2875Q106.6625 47.834373 104.74062 47.834373Q103.50625 47.834373 102.45937 47.146873Q101.42812 46.459373 100.85 45.240623Q100.2875 44.021873 100.2875 42.428123Q100.2875 40.865623 100.80312 39.6Q101.31875 38.334373 102.35 37.6625Q103.39687 36.990623 104.6625 36.990623Q105.6 36.990623 106.33437 37.396873Q107.06875 37.7875 107.5375 38.4125L107.5375 33.2875L109.27187 33.2875L109.27187 47.6L107.64687 47.6ZM102.08437 42.428123Q102.08437 44.4125 102.92812 45.396873Q103.77187 46.38125 104.9125 46.38125Q106.06875 46.38125 106.86562 45.44375Q107.67812 44.50625 107.67812 42.56875Q107.67812 40.44375 106.85 39.44375Q106.0375 38.44375 104.83437 38.44375Q103.6625 38.44375 102.86562 39.4125Q102.08437 40.365623 102.08437 42.428123ZM118.64687 47.6L118.64687 46.2875Q117.6625 47.834373 115.74062 47.834373Q114.50625 47.834373 113.45937 47.146873Q112.42812 46.459373 111.85 45.240623Q111.2875 44.021873 111.2875 42.428123Q111.2875 40.865623 111.80312 39.6Q112.31875 38.334373 113.35 37.6625Q114.39687 36.990623 115.6625 36.990623Q116.6 36.990623 117.33437 37.396873Q118.06875 37.7875 118.5375 38.4125L118.5375 33.2875L120.27187 33.2875L120.27187 47.6L118.64687 47.6ZM113.08437 42.428123Q113.08437 44.4125 113.92812 45.396873Q114.77187 46.38125 115.9125 46.38125Q117.06875 46.38125 117.86562 45.44375Q118.67812 44.50625 118.67812 42.56875Q118.67812 40.44375 117.85 39.44375Q117.0375 38.44375 115.83437 38.44375Q114.6625 38.44375 113.86562 39.4125Q113.08437 40.365623 113.08437 42.428123Z" fill-rule="nonzero"/></svg>